<?xml version="1.0" encoding="utf-8"?>
<!-- Generator: Adobe Illustrator 22.1.0, SVG Export Plug-In . SVG Version: 6.00 Build 0)  -->
<svg version="1.1" id="badges" xmlns="http://www.w3.org/2000/svg" xmlns:xlink="http://www.w3.org/1999/xlink" x="0px" y="0px"
	 viewBox="0 0 230 200" style="enable-background:new 0 0 230 200;" xml:space="preserve">
<style type="text/css">
	.st0{fill:#383433;}
	.st1{fill-rule:evenodd;clip-rule:evenodd;fill:#383433;}
</style>
<g>
	<g>
		<path class="st0" d="M175.7,20H54.3c-4.2,0-7.6,3.4-7.6,7.6c0,0,0,49.4,0,92.5c0,30.8,61.2,56.8,61.2,56.8c3.8,1.6,7,3,7,3
			c0,0,0,0,0,0c0,0,0.1,0,0.1,0c0,0,0.1,0,0.1,0c0,0,3.1-1.4,7-3c0,0,61.2-26.1,61.2-56.8c0-43.2,0-92.5,0-92.5
			C183.3,23.4,179.9,20,175.7,20z M180.3,120.1c0,28.4-58.8,53.8-59.4,54c-1.9,0.8-3.7,1.6-4.9,2.1c-0.3,0.2-0.7,0.3-0.9,0.4
			c-0.3-0.1-0.6-0.3-0.9-0.4c-1.3-0.5-3-1.3-4.9-2.1c-0.6-0.3-59.4-25.6-59.4-54V27.6c0-2.5,2-4.5,4.5-4.5h121.5
			c2.5,0,4.5,2,4.5,4.5V120.1z"/>
	</g>
	<g>
		<g>
			<path class="st0" d="M111.8,78.2c1.4,0,2.7,0,4,0c0.1,0,0.2,0,0.3,0c0.1,0,0.2,0,0.3,0c1.2,0,2.6,0,4,0
				c-1.5,15.9,14.3,23.8,26.7,15.4c2.5-5.7,6.1-13.9,9.1-16.8c-4.9-8-27.1-6.5-34.7-1.7c-1.5,0.1-2.3,0-3.3,0v0c-0.8,0-1.5,0-2.1,0
				c-0.6,0-1.2,0-2,0v0c-1,0-1.7,0.1-3.3,0c-7.5-4.8-29.8-6.2-34.7,1.7c3,2.9,6.6,11.1,9.1,16.8C97.4,102,113.3,94.1,111.8,78.2z
				 M150.1,75.8h2.6c0.4,0,0.7,0.4,0.7,0.9c0,0.5-0.3,0.9-0.7,0.9h-2.6c-0.4,0-0.7-0.4-0.7-0.9C149.4,76.2,149.7,75.8,150.1,75.8z
				 M124.5,76.8c6.7-4.5,22-6.2,23.8,2.8C152.4,100.5,117.5,99.9,124.5,76.8z M81.9,77.6h-2.6c-0.4,0-0.7-0.4-0.7-0.9
				c0-0.5,0.3-0.9,0.7-0.9h2.6c0.4,0,0.7,0.4,0.7,0.9C82.6,77.2,82.3,77.6,81.9,77.6z M83.7,79.6c1.8-9,17.1-7.3,23.8-2.8
				C114.5,99.9,79.7,100.5,83.7,79.6z"/>
		</g>
	</g>
	<path id="moustache_1_" class="st1" d="M137.8,138.7c0.1,1.9-5.1,6.4-7.5,6c-3.8-0.5-9.1-9-15.3-2.2c-6.1-6.8-11.4,1.6-15.3,2.2
		c-2.4,0.3-7.6-4.1-7.5-6c0,0-0.4,2.2,0.6,4.8c3.2,9.2,16.9,8.4,22.2,1.9c5.3,6.5,19,7.3,22.2-1.9
		C138.2,140.9,137.8,138.7,137.8,138.7z"/>
	<g id="text_13_">
		<g>
			<path class="st0" d="M68.1,103.8h3.6v13h3.1v-13h3.6V132h-3.6v-11.6h-3.1V132h-3.6V103.8z"/>
			<path class="st0" d="M83.6,103.8h3.6V132h-3.6V103.8z"/>
			<path class="st0" d="M92.5,103.8h7.9c1.4,0,2.4,1.1,2.4,2.4v10.6c0,1.3-1.1,2.4-2.4,2.4h-4.3V132h-3.6v-12.8V103.8z M99.2,107.4
				h-3.1v8.1h3.1V107.4z"/>
			<path class="st0" d="M110.8,123.5v4.9h3.1v-9.1h-4.3c-1.4,0-2.4-1.2-2.4-2.4v-10.7c0-1.4,1-2.4,2.4-2.4h5.5c1.4,0,2.4,1,2.4,2.4
				v5.9h-3.6v-4.7h-3.1v8.2h4.3c1.4,0,2.4,1.1,2.4,2.4v11.6c0,1.3-1.1,2.4-2.4,2.4h-5.5c-1.3,0-2.4-1.1-2.4-2.4v-6.1H110.8z"/>
			<path class="st0" d="M124.8,107.4h-3.2v-3.6h10.1v3.6h-3.2V132h-3.6V107.4z"/>
			<path class="st0" d="M145,132h-9.3v-28.2h9.1v3.6h-5.4v7.8h3.8v3.6h-3.8v9.5h5.7V132z"/>
			<path class="st0" d="M156.5,120h-3.1v12h-3.6v-28.2h7.5c1.4,0,2.4,1.1,2.4,2.4v9.8c0,1-0.5,1.8-1.3,2c1.1,0.2,1.7,1.4,1.7,2.4
				V132h-3.6V120z M153.4,116.4h2.6v-9h-2.6V116.4z"/>
		</g>
		<g>
			<path class="st0" d="M143,53.8v1.5h-0.4c0-0.2,0-0.4-0.1-0.6c0-0.1-0.1-0.3-0.2-0.4c-0.1-0.1-0.2-0.2-0.4-0.2h-0.6v8.8
				c0,0.1,0,0.2,0.1,0.3c0,0.1,0.1,0.1,0.1,0.1c0,0,0.1,0,0.2,0v0.4h-1.7v-0.4c0.1,0,0.1,0,0.2,0c0,0,0.1,0,0.1-0.1s0.1-0.2,0.1-0.3
				v-8.8h-0.6c-0.2,0-0.3,0.1-0.4,0.2c-0.1,0.1-0.2,0.3-0.2,0.4c-0.1,0.2-0.1,0.4-0.1,0.6h-0.4v-1.5H143z"/>
			<path class="st0" d="M148.3,63.2v0.4h-1.7v-0.4c0.1,0,0.1,0,0.2,0c0,0,0.1,0,0.1-0.1s0.1-0.2,0.1-0.3v-4h-2.1v4
				c0,0.1,0,0.2,0.1,0.3c0,0.1,0.1,0.1,0.1,0.1c0.1,0,0.1,0,0.2,0v0.4h-1.6v-0.4c0.1,0,0.1,0,0.2,0c0,0,0.1,0,0.1-0.1
				c0-0.1,0.1-0.2,0.1-0.3v-8.3c0-0.1,0-0.2-0.1-0.3c0-0.1-0.1-0.1-0.1-0.1c0,0-0.1,0-0.2,0v-0.3h1.6v0.3c-0.1,0-0.1,0-0.2,0
				c0,0-0.1,0.1-0.1,0.1c0,0.1-0.1,0.2-0.1,0.3v4h2.1v-4c0-0.1,0-0.2-0.1-0.3c0-0.1-0.1-0.1-0.1-0.1c0,0-0.1,0-0.2,0v-0.3h1.7v0.3
				c-0.1,0-0.1,0-0.2,0c0,0-0.1,0.1-0.1,0.1c0,0.1-0.1,0.2-0.1,0.3v8.3c0,0.1,0,0.2,0.1,0.3c0,0.1,0.1,0.1,0.1,0.1
				C148.2,63.2,148.3,63.2,148.3,63.2z"/>
			<path class="st0" d="M153.2,62.8c0,0.1,0.1,0.2,0.1,0.3c0.1,0.1,0.1,0.1,0.2,0.1c0.1,0,0.2,0,0.2,0v0.3h-2v-0.3
				c0.1,0,0.2,0,0.2,0c0,0,0.1-0.1,0.1-0.1c0-0.1,0-0.1,0-0.3c0,0,0-0.2-0.1-0.5c-0.1-0.3-0.1-0.7-0.2-1.2h-1.8
				c-0.1,0.5-0.2,0.9-0.2,1.2c-0.1,0.3-0.1,0.5-0.1,0.5c0,0.1,0,0.2,0,0.3c0,0.1,0.1,0.1,0.1,0.1c0.1,0,0.1,0,0.2,0v0.3h-1.3v-0.3
				c0.1,0,0.2,0,0.2,0c0.1,0,0.1-0.1,0.2-0.1c0.1-0.1,0.1-0.1,0.1-0.3c0,0,0-0.1,0.1-0.4c0-0.3,0.1-0.6,0.2-1
				c0.1-0.4,0.2-0.9,0.3-1.4c0.1-0.5,0.2-1.1,0.3-1.7l0.8-4.5h0.7c0.3,1.7,0.5,3.2,0.7,4.5c0.1,0.6,0.2,1.1,0.3,1.7
				c0.1,0.5,0.2,1,0.2,1.4c0.1,0.4,0.1,0.8,0.2,1C153.2,62.7,153.2,62.8,153.2,62.8z M150.2,60.8h1.7c-0.1-0.4-0.1-0.8-0.2-1.2
				c-0.1-0.4-0.1-0.9-0.2-1.3c-0.1-0.4-0.1-0.9-0.2-1.3c-0.1-0.4-0.1-0.8-0.2-1.1c-0.1,0.3-0.1,0.7-0.2,1.1
				c-0.1,0.4-0.1,0.8-0.2,1.3c-0.1,0.4-0.2,0.9-0.2,1.3C150.3,60,150.3,60.4,150.2,60.8z"/>
			<path class="st0" d="M157.7,53.8h1.2v0.3c-0.1,0-0.2,0-0.2,0c0,0-0.1,0.1-0.1,0.1c0,0.1-0.1,0.2-0.1,0.3v9.1h-1.2l-2.3-7.9v7.1
				c0,0.1,0,0.2,0.1,0.3c0,0.1,0.1,0.1,0.1,0.1c0.1,0,0.1,0,0.2,0v0.4h-1.2v-0.4c0.1,0,0.1,0,0.2,0c0,0,0.1-0.1,0.1-0.1
				c0-0.1,0.1-0.1,0.1-0.3v-8.3c0-0.1,0-0.2-0.1-0.3c0-0.1-0.1-0.1-0.1-0.1c-0.1,0-0.1,0-0.2,0v-0.3h1.4l2.4,8.3v-7.6
				c0-0.1,0-0.2-0.1-0.3c0-0.1-0.1-0.1-0.1-0.1c-0.1,0-0.1,0-0.2,0V53.8z"/>
			<path class="st0" d="M166.5,62.8c0,0.1,0.1,0.2,0.1,0.3c0.1,0.1,0.1,0.1,0.2,0.1c0.1,0,0.2,0,0.2,0v0.3h-2v-0.3
				c0.1,0,0.2,0,0.2,0c0,0,0.1-0.1,0.1-0.1c0-0.1,0-0.1,0-0.3c0,0,0-0.2-0.1-0.5c-0.1-0.3-0.1-0.7-0.2-1.2h-1.8
				c-0.1,0.5-0.2,0.9-0.2,1.2c0,0.3-0.1,0.5-0.1,0.5c0,0.1,0,0.2,0,0.3c0,0.1,0.1,0.1,0.1,0.1c0.1,0,0.1,0,0.2,0v0.3h-1.3v-0.3
				c0.1,0,0.2,0,0.2,0c0.1,0,0.1-0.1,0.2-0.1c0.1-0.1,0.1-0.1,0.1-0.3c0,0,0-0.1,0.1-0.4c0-0.3,0.1-0.6,0.2-1
				c0.1-0.4,0.2-0.9,0.3-1.4c0.1-0.5,0.2-1.1,0.3-1.7l0.8-4.5h0.7c0.3,1.7,0.5,3.2,0.7,4.5c0.1,0.6,0.2,1.1,0.3,1.7
				c0.1,0.5,0.2,1,0.2,1.4c0.1,0.4,0.1,0.8,0.2,1C166.5,62.7,166.5,62.8,166.5,62.8z M163.4,60.8h1.7c-0.1-0.4-0.1-0.8-0.2-1.2
				c-0.1-0.4-0.1-0.9-0.2-1.3c-0.1-0.4-0.1-0.9-0.2-1.3c-0.1-0.4-0.1-0.8-0.2-1.1c-0.1,0.3-0.1,0.7-0.2,1.1
				c-0.1,0.4-0.1,0.8-0.2,1.3c-0.1,0.4-0.2,0.9-0.2,1.3C163.6,60,163.5,60.4,163.4,60.8z"/>
		</g>
		<g>
			<path class="st0" d="M67.8,42.9c-0.8-0.4-1.7-0.6-2.5-0.6c-3.1,0-5.9,2.6-5.9,6.6c0,4.7,3.2,8.4,9.6,8.4
				c0.1-11,5.7-24.5,14.4-24.5c4,0,6,3.1,6,7.1c0,7.1-6.1,17.3-17.2,18.9c0,5.3,1,9.6,4,10.4c-0.1-0.8-0.2-1.7-0.2-2.5
				c0-5,2.4-10,6.6-10c2.9,0,4.3,2.3,4.3,5.2c0,3.7-2.5,8.1-7.5,9c0.8,1.8,2.1,3.2,4,3.7l-1,2.4c-3-0.6-4.9-3-5.8-5.9
				c-4.9-0.5-7.3-5.6-7.6-12c-8.1,0-12.5-4.9-12.5-10.4c0-5.8,4.3-9.3,8.8-9.3c1.3,0,2.6,0.3,3.8,0.9L67.8,42.9z M72.3,57.1
				c9.5-1.8,14.1-11.7,14.1-17.7c0-2.8-1-4.8-3-4.8C77.7,34.6,73,47.1,72.3,57.1z M78.4,65.9c0,1.2,0.1,2.3,0.4,3.5
				c3.6-0.9,5.6-5,5.6-7.9c0-1.7-0.7-3-2.1-3C79.9,58.5,78.4,62,78.4,65.9z"/>
			<path class="st0" d="M99.7,54c0.1,0,0.2,0,0.2,0.2c-0.2,0.6-0.7,1.1-1.6,1.5c0,0.2,0,0.4,0,0.6c0,3.6-1.9,7.7-4.7,7.7
				c-2.8,0-4-2.6-4-5.5c0-3.9,2.1-8.5,5.1-8.5c1.4,0,2.7,0.6,2.7,2.6c-0.5-0.2-1-0.3-1.4-0.3c-2.8,0-4.1,3.9-4.1,7.1
				c0,2.1,0.6,3.8,1.7,3.8c1.5,0,2.6-3.1,2.6-5.7c0-1.5-0.4-2.9-1.2-3.4c0,0,1.1-0.5,1.8-0.8C97.9,54,98.3,54,99.7,54z"/>
			<path class="st0" d="M109.7,54c0.4,0,0.7-0.1,1-0.2c0.3-8.2,3-17.9,4.9-17.9c1.5,0,2.3,1.7,2.3,4.2c0,4.1-2,10.2-5.5,13.5
				c0,0.6,0,1.3,0,1.9c0,4,0.8,7.1,3.2,7.1c0.5,0,1.4-0.1,2.2-2c0.1-0.3,0.2-0.4,0.3-0.4c0.1,0,0.1,0.1,0.1,0.2v0.1
				c0,0.1,0.2,0.1,0.2,0.1c0,1.4-1.3,4.2-3.1,4.2c-3.3,0-4.4-4.4-4.4-9.7v-0.3c-0.7,0.4-1.4,0.7-2.1,0.9v0.4c0,3.6-1.9,7.7-4.7,7.7
				c-2.8,0-4-2.6-4-5.5c0-3.9,2.1-8.5,5.1-8.5c2.5,0,2.7,1.7,2.7,2.3v0.2c-0.5-0.2-1-0.3-1.4-0.3c-2.8,0-4.1,3.9-4.1,7.1
				c0,2.1,0.6,3.8,1.7,3.8c1.5,0,2.6-3.1,2.6-5.7c0-1.5-0.4-2.9-1.2-3.4c0,0,1.1-0.5,1.8-0.8C108.3,53.9,108.6,54,109.7,54z
				 M112.5,52.5c2.5-2.8,3.8-8.7,3.8-11.3c0-0.8-0.1-1.3-0.4-1.3C114.8,39.9,113,46.5,112.5,52.5z"/>
			<path class="st0" d="M131.1,55.2c-0.5,0.3-1.2,0.4-1.9,0.4c-0.1,0-0.3,0-0.4,0c-0.4,3.4-2,8.9-6.4,8.9c-2,0-3.8-1.5-4.7-5.3
				c-0.1,0-0.3,0-0.4,0c-0.2,0-0.1-0.4-0.4-0.7c0,0-0.1-0.1-0.1-0.1c0-0.1,0.2-0.3,0.4-0.3l0.5,0.1c0.2-3.9,2.1-7.9,5.1-7.9
				c1.4,0,2.2,1.2,2.2,2.9c0,2.2-1.4,5-4.8,6.3c0.3,3.1,1.4,4.2,2.7,4.2c3.2,0,4.5-4.5,5-8.4c-0.9-0.6-1.3-1.9-1.3-3.1
				c0-1.3,0.5-2.5,1.5-2.5c1,0,1.2,0.7,1.2,1.5c0,0.7-0.2,1.5-0.2,2.1c0,0.5,0.1,0.8,0.3,0.8c0.2,0,0.4-0.1,0.7-0.3
				c1.1-0.7,2.8-2.5,3.1-2.5c0.4,0,1.1,0.8,1.1,1.3c0,0.8-0.6,1.8-1.3,2.3c-0.1,0.9-0.2,1.7-0.2,2.5c0,2.7,0.7,5,2.9,5
				c1.6,0,3.1-1.1,4.2-1.8c0.4-0.3,1.1-0.8,1.4-0.8c0.1,0,0.1,0,0.1,0.1c0,0.2-0.2,0.5-0.7,1.2l0.1,0.6c-1.4,2.7-3.4,3.9-5.1,3.9
				c-2.8,0-4.8-2.8-4.8-7.6C131.1,57,131.1,56.1,131.1,55.2L131.1,55.2z M120.3,57.9c2.3-0.8,3.3-3.1,3.3-4.6c0-0.8-0.3-1.3-0.7-1.3
				C121.4,52,120.3,55.1,120.3,57.9z"/>
		</g>
	</g>
</g>
</svg>
