<?xml version="1.0" encoding="utf-8"?>
<!-- Generator: Adobe Illustrator 22.1.0, SVG Export Plug-In . SVG Version: 6.00 Build 0)  -->
<svg version="1.1" id="Capa_1" xmlns="http://www.w3.org/2000/svg" xmlns:xlink="http://www.w3.org/1999/xlink" x="0px" y="0px"
	 viewBox="0 0 230 200" style="enable-background:new 0 0 230 200;" xml:space="preserve">
<style type="text/css">
	.st0{fill:#383433;}
	.st1{fill:#FFFFFF;}
</style>
<g>
	<path class="st0" d="M91.1,42.7L45,88.8V55.5c0-7,5.8-12.8,12.8-12.8H91.1z M94.2,42.7L45,91.9V124l46.7,46.7h36l49.2-49.2V89.4
		l-46.7-46.7H94.2z M164.1,170.7c7,0,12.8-5.8,12.8-12.8v-33.3l-46.1,46.1L164.1,170.7L164.1,170.7z M45,157.9
		c0,7,5.8,12.8,12.8,12.8h30.8L45,127.1V157.9z M176.9,55.5c0-7-5.8-12.8-12.8-12.8h-30.8l43.6,43.6V55.5z M187,96.5l-10.1-10.1v3.1
		l8.6,8.6c4.1,4.1,4.1,10.8,0,14.9l-8.6,8.6v3.1l10.1-10.1C192,109.5,192,101.4,187,96.5z M36.4,115.4c-2-2-3.1-4.6-3.1-7.5
		c0-2.8,1.1-5.5,3.1-7.5l8.6-8.6v-3.1L34.9,99c-2.4,2.4-3.7,5.6-3.7,9s1.3,6.6,3.7,9L45,127.1V124L36.4,115.4z M117.2,181.3
		c-2,2-4.6,3.1-7.5,3.1c-2.8,0-5.5-1.1-7.5-3.1l-10.5-10.5h-3.1l12.1,12.1c2.4,2.4,5.6,3.7,9,3.7s6.6-1.3,9-3.7l12.1-12.1h-3.1
		L117.2,181.3z M104.7,32.2c2-2,4.6-3.1,7.5-3.1c2.8,0,5.5,1.1,7.5,3.1l10.5,10.5h3.1l-12.1-12.1c-2.4-2.4-5.6-3.7-9-3.7
		s-6.6,1.3-9,3.7L91.1,42.7h3.1L104.7,32.2z"/>
	<path class="st1" d="M134.2,111c0,0-3.1-4.9-3.4-5.3c-0.3-0.4-0.7-0.3-0.7-0.3c0.1-0.2-0.1-0.6-0.1-0.6s-2.9-4.7-3.3-5.4
		c-0.5-0.7-1-0.8-1-0.8s-3.5-0.4-3.6-0.4s0-0.1,0-0.1s1.1-2.8,1.4-3.4c0.2-0.6,0-1.1,0-1.1s-3.2-5.2-3.5-5.7
		c-0.3-0.4-1.6-0.2-1.6-0.2s-4.9,1.6-5.5,1.8c-0.6,0.2-0.6,0.5-0.6,0.5v0.1c0.3-0.5,0.8-0.5,0.8-0.5s4.4-1.4,5-1.6
		c0.5-0.1,0.3,0.3,0.3,0.3s-1.2,3.2-1.5,3.6s-0.7,0.5-0.7,0.5s-4.2,1.3-4.9,1.5c-0.7,0.2-0.4-0.4-0.4-0.4l1.3-3.1c0,0-0.1,0-0.1-0.1
		c-0.3-0.4-1-0.3-1-0.3s-5.3,1.8-5.6,1.9c-0.3,0.1-0.3,0.4-0.3,0.4l0,0c0.3-0.3,0.6-0.4,0.6-0.4s4-1.3,4.5-1.4
		c0.6-0.2,0.3,0.2,0.3,0.2s-1.4,3.3-1.7,3.6c-0.3,0.4-0.7,0.5-0.7,0.5s-3.8,1.1-4.5,1.3c-0.7,0.2-0.4-0.4-0.4-0.4l1.5-3.2
		c0-0.1,0.1-0.1,0.1-0.1l0,0c-0.4-0.3-1-0.2-1-0.2s-4.4,1.4-4.9,1.6s-0.8,0.6-0.8,0.6s-2.4,4.1-2.6,4.5s0,0.6,0,0.6h0.1
		c0,0,0.1,0,0.1,0.1h0.1c0,0,4-1.2,4.6-1.4c0.6-0.2,0.3,0.3,0.3,0.3s-1.9,3.7-2.2,4.1c-0.3,0.4-0.7,0.5-0.7,0.5s-3.9,1-4.6,1.2
		s-0.4-0.4-0.4-0.4l2.1-3.6c0.2-0.3,0.5-0.5,0.7-0.6c-0.3,0-0.6,0.4-0.6,0.4s-2.7,4.5-2.9,4.9c-0.2,0.4,0.1,0.7,0.1,0.7l0.1,0.1
		c0.2-0.1,0.4-0.2,0.4-0.2s3.9-1,4.5-1.2s0.3,0.3,0.3,0.3s-2,3.9-2.3,4.3s-0.7,0.5-0.7,0.5s-3.9,1-4.6,1.2s-0.4-0.4-0.4-0.4l2.3-4
		c0.1-0.2,0.2-0.3,0.4-0.4c-0.3-0.1-0.5,0.1-0.5,0.1s-2.6,4.5-3,5.1c-0.3,0.5,0,1.1,0,1.1s4.1,5.2,4.3,5.3c0.2,0.2,0.8,0.1,0.8,0.1
		l2.8-0.6c0,0,1.4,1.8,1.6,1.9c0.1,0.1,0.2,0.1,0.3,0c-0.2-0.2-0.4-0.4-0.4-0.4s-1.1-1.4-1.2-1.5c0-0.1,0.1-0.1,0.1-0.1
		s1.4-0.3,1.5-0.3s0.3,0.1,0.3,0.1s2,2.5,2.3,2.9c0.4,0.5-0.3,0.2-0.3,0.2s-1.7-0.7-2.1-0.9c-0.3,0.2-0.1,0.4-0.1,0.4s3,4,3.3,4.4
		s0.7,0.6,0.7,0.6s13.4,6.5,13.7,6.6c0.4,0.2,0.9-0.1,0.9-0.1s5.1-5.6,5.3-5.8c0.2-0.2,0.1-0.9,0.1-0.9c0.5,0,0.8-0.1,0.8-0.1
		s4.6-5.2,4.9-5.5s0.2-1,0.2-1c0.6,0,0.9-0.2,0.9-0.2s4.3-5,4.7-5.4C134.4,111.5,134.2,111,134.2,111z M125.9,100c0,0,0.4-0.4,0.7,0
		c0.2,0.3,3,4.8,3,4.8s0.3,0.5,0,0.8s-4,4.7-4,4.7s-0.3,0.2-0.5,0c-0.2-0.3-3.4-4.8-3.4-4.8s-0.2-0.4,0.1-0.8
		C122,104.3,125.9,100,125.9,100z M123.7,112.1c0,0-3.8,4.3-4.2,4.7c-0.5,0.5-0.8,0-0.8,0l-2.8-3.8c1-0.7,1.4-2,1.4-2s1.1-3,1.2-3.1
		c0-0.1,0.1-0.3,0.1-0.3s0.9-0.9,1.2-1.2c0.4-0.4,0.8,0.1,0.8,0.1s2.7,4,3.1,4.5C124,111.7,123.7,112.1,123.7,112.1z M117.5,119
		c-0.3,0.3-4.6,5-4.6,5s-0.3,0.2-0.5,0s-3.7-4.6-3.7-4.6s-0.3-0.4,0-0.8c0.3-0.3,4.6-4.9,4.6-4.9s0.4-0.4,0.7,0
		c0.2,0.3,3.4,4.5,3.4,4.5S117.8,118.7,117.5,119z M115,100.1c0.2,0.2,3.6,5.3,3.6,5.3s0.2,0.5,0.1,1c-0.2,0.5-1.9,4.5-1.9,4.5
		s-0.2,0.3-0.5-0.1s-3.6-5.2-3.6-5.2s-0.2-0.3,0-0.7c0.2-0.4,1.9-4.8,1.9-4.8S114.8,99.8,115,100.1z M104.8,108.4
		c0,0-0.3-0.5,0.2-0.6c0.4-0.1,5.7-1.5,5.7-1.5s0.5-0.1,0.7,0.1c0.1,0.2,3.5,5.1,3.5,5.1s0.6,0.8-0.1,0.9c-0.5,0.1-5.4,1.2-5.4,1.2
		s-0.6,0.2-0.8-0.1C108.5,113.3,104.8,108.4,104.8,108.4z M113.5,100c0,0-1.5,4.3-1.8,4.7c-0.3,0.4-0.7,0.5-0.7,0.5
		s-5.1,1.3-5.8,1.5c-0.7,0.2-0.4-0.4-0.4-0.4l1.9-4.3c0.3-0.6,0.9-0.7,0.9-0.7s5-1.4,5.6-1.6C113.7,99.6,113.5,100,113.5,100z
		 M106.9,113.5c0,0,0.5,0.7-0.1,0.8c-0.5,0.1-5.1,1.1-5.1,1.1s-0.5,0.1-0.8-0.1c-0.2-0.2-3.9-4.9-3.9-4.9s-0.3-0.4,0.2-0.6
		c0.4-0.1,5.3-1.2,5.3-1.2s0.5-0.1,0.6,0.1C103.4,108.9,106.9,113.5,106.9,113.5z M103.8,117.8l3.2,1.3c0,0,0.4,0.2,0.7,0.5
		c0.2,0.3,3.6,4.5,3.6,4.5s0.4,0.6-0.2,0.3c-0.5-0.2-3.6-1.7-3.6-1.7s-0.3-0.1-0.5-0.4s-3.4-4.3-3.4-4.3S103.2,117.5,103.8,117.8z
		 M120,88.2c0.2,0.2,3.2,5.2,3.2,5.2s0.2,0.5,0.1,1c-0.2,0.5-1.5,3.6-1.5,3.6s-0.2,0.3-0.5-0.1s-3.2-5.2-3.2-5.2s-0.2-0.3,0-0.7
		c0.2-0.4,1.6-3.7,1.6-3.7S119.8,87.9,120,88.2z M117.2,93.8c0,0,0.2-0.4,0.4,0c0.2,0.2,3.5,5.3,3.5,5.3s0.2,0.5,0.1,1
		c-0.2,0.5-1.6,4.1-1.6,4.1s-0.2,0.3-0.5-0.1s-3.5-5.2-3.5-5.2s-0.2-0.3,0-0.7C115.7,97.8,117.2,93.8,117.2,93.8z M109.5,95.9
		c0.3-0.6,0.9-0.7,0.9-0.7s4.7-1.5,5.3-1.7c0.5-0.1,0.3,0.3,0.3,0.3s-1.5,3.8-1.8,4.2c-0.3,0.4-0.7,0.5-0.7,0.5s-4.5,1.3-5.2,1.5
		s-0.4-0.4-0.4-0.4L109.5,95.9z M96.8,98.2c-0.7,0.2-0.4-0.3-0.4-0.3l2-3.3c0.3-0.4,0.8-0.6,0.8-0.6s3.9-1.2,4.4-1.4
		c0.6-0.2,0.3,0.2,0.3,0.2s-1.8,3.3-2.1,3.7c-0.3,0.4-0.7,0.5-0.7,0.5S97.5,98.1,96.8,98.2z M100.1,102l2-3.8
		c0.3-0.6,0.9-0.7,0.9-0.7s4.3-1.3,4.8-1.4c0.6-0.2,0.3,0.3,0.3,0.3s-1.7,4-2,4.4s-0.7,0.5-0.7,0.5s-4.2,1-4.9,1.2
		C99.8,102.5,100.1,102,100.1,102z M96.9,108.5l2-4.2c0.3-0.5,0.8-0.7,0.8-0.7s4.6-1.1,5.2-1.3c0.6-0.2,0.3,0.3,0.3,0.3
		s-1.8,4.1-2.1,4.5c-0.3,0.4-0.7,0.5-0.7,0.5s-4.4,1.1-5.1,1.3C96.5,109,96.9,108.5,96.9,108.5z M94.3,117.1c0,0-0.6,0.1-0.8-0.1
		c-0.2-0.2-3.9-4.9-3.9-4.9s-0.3-0.4,0.2-0.6c0.4-0.1,4.9-1.3,4.9-1.3s0.5-0.1,0.6,0.1s3.7,4.8,3.7,4.8s0.5,0.7-0.1,0.8
		C98.6,116.2,94.3,117.1,94.3,117.1z M99.1,116.5C99,116.4,99.2,116.4,99.1,116.5c0.1-0.1,0.4-0.2,0.7-0.2c0.3-0.1,0.5,0,0.5,0
		s1.4,0.6,1.7,0.7c0.3,0.1,0.6,0.5,0.6,0.5s3,3.8,3.4,4.3s-0.1,0.3-0.1,0.3s-2.7-1.3-3.2-1.5s-0.8-0.6-0.8-0.6
		S99.2,116.6,99.1,116.5z M105.4,125.4c-0.5-0.2-2.6-1.3-2.6-1.3s-0.3-0.1-0.5-0.4s-2.9-3.8-2.9-3.8s-0.3-0.5,0.3-0.2l2.6,1.3
		c0,0,0.4,0.2,0.7,0.5c0.2,0.3,2.7,3.6,2.7,3.6S106,125.7,105.4,125.4z M110.2,127.8c-0.5-0.2-3.2-1.5-3.2-1.5s-0.3-0.1-0.5-0.4
		s-3-3.9-3-3.9s-0.3-0.5,0.3-0.2l3.2,1.6c0,0,0.4,0.2,0.7,0.5c0.2,0.3,2.8,3.6,2.8,3.6S110.8,128.1,110.2,127.8z M115.7,130.4
		c-0.5-0.2-3.7-1.8-3.7-1.8s-0.3-0.1-0.5-0.4c-0.2-0.3-3-3.8-3-3.8s-0.3-0.5,0.3-0.2l3.2,1.3c0,0,0.4,0.2,0.7,0.5
		c0.2,0.3,3.3,4.1,3.3,4.1S116.3,130.7,115.7,130.4z M122.2,125c-0.3,0.3-4.5,5-4.5,5s-0.3,0.2-0.5,0c-0.2-0.3-3.5-4.3-3.5-4.3
		s-0.3-0.4,0-0.8c0.3-0.3,4.5-5,4.5-5s0.4-0.4,0.7,0c0.2,0.3,3.2,4.3,3.2,4.3S122.5,124.6,122.2,125z M127.9,118.4
		c-0.3,0.3-4.2,4.8-4.2,4.8s-0.3,0.2-0.5,0s-3.2-4.4-3.2-4.4s-0.3-0.4,0-0.8c0.3-0.3,4.2-4.8,4.2-4.8s0.4-0.4,0.7,0
		c0.2,0.3,3,4.4,3,4.4S128.2,118.1,127.9,118.4z M133.8,111.9c-0.3,0.3-4.1,4.7-4.1,4.7s-0.3,0.2-0.5,0c-0.2-0.3-3.2-4.7-3.2-4.7
		s-0.2-0.4,0.1-0.8c0.3-0.3,4.2-4.6,4.2-4.6s0.4-0.4,0.7,0c0.2,0.3,2.8,4.6,2.8,4.6S134.1,111.6,133.8,111.9z"/>
	<g>
		<path class="st1" d="M124.8,152.9H98.1c-0.6,0-1.1,0.3-1.1,0.6c0,0.4,0.5,0.6,1.1,0.6h26.7c0.6,0,1.1-0.3,1.1-0.6
			S125.4,152.9,124.8,152.9z"/>
		<path class="st1" d="M121.8,156.5h-20.5c-0.6,0-1.1,0.3-1.1,0.6s0.5,0.6,1.1,0.6h20.5c0.6,0,1.1-0.3,1.1-0.6
			C122.8,156.8,122.4,156.5,121.8,156.5z"/>
	</g>
	<g id="text_7_">
		<g>
			<path class="st1" d="M144.6,105.9v-0.3h-0.4v-0.5l0.4-0.4h0.9v6.8h-0.9V105.9z"/>
			<path class="st1" d="M150.4,111.1c0,0.3-0.3,0.6-0.6,0.6h-1.3h-0.1c-0.3,0-0.5-0.3-0.5-0.6v-1.5h0.9v1.2h0.7v-2.2h-1
				c-0.3,0-0.6-0.3-0.6-0.6v-2.7c0-0.3,0.3-0.5,0.6-0.5h1.3c0.3,0,0.6,0.3,0.6,0.6L150.4,111.1L150.4,111.1z M149.5,105.7h-0.7v2
				h0.7V105.7z"/>
			<path class="st1" d="M154.2,105.7h-1.7v-0.9h2.6v1.1l-1.1,5.8h-0.9L154.2,105.7z"/>
			<path class="st1" d="M157.1,104.8h0.9v3.2h0.6v-3.2h0.9v3.2h0.6v0.9h-0.6v2.8h-0.9v-2.8h-1.5V104.8z"/>
		</g>
		<g>
			<path class="st1" d="M68.2,111.6h-2.3v-6.8h2.2v0.9h-1.3v1.9h0.9v0.9h-0.9v2.3h1.4C68.2,110.8,68.2,111.6,68.2,111.6z"/>
			<path class="st1" d="M71.4,109.6v1.2h0.7v-2.2h-1c-0.3,0-0.6-0.3-0.6-0.6v-2.6c0-0.3,0.2-0.6,0.6-0.6h1.3c0.3,0,0.6,0.2,0.6,0.6
				v1.4h-0.9v-1.1h-0.7v2h1c0.3,0,0.6,0.3,0.6,0.6v2.8c0,0.3-0.3,0.6-0.6,0.6h-1.3c-0.3,0-0.6-0.3-0.6-0.6v-1.5
				C70.5,109.6,71.4,109.6,71.4,109.6z"/>
			<path class="st1" d="M76,105.7h-0.8v-0.9h2.4v0.9h-0.8v6H76V105.7z"/>
			<path class="st1" d="M79.2,110.8h0.9v0.9h-0.9V110.8z"/>
		</g>
		<g>
			<path class="st1" d="M78.4,145.3l1.6,2.2h-1l-1.5-2.2h-0.1v2.2h-0.8v-5.3h0.9c0.7,0,1.2,0.1,1.5,0.4c0.3,0.3,0.5,0.7,0.5,1.2
				c0,0.4-0.1,0.7-0.3,1C79.1,145,78.8,145.2,78.4,145.3z M77.5,144.7h0.3c0.8,0,1.1-0.3,1.1-0.9c0-0.5-0.4-0.8-1.1-0.8h-0.3V144.7z
				"/>
			<path class="st1" d="M82.8,142.2v3.2c0,0.5,0.1,0.8,0.2,1c0.2,0.3,0.5,0.5,0.9,0.5s0.7-0.2,0.9-0.5c0.1-0.2,0.2-0.5,0.2-1v-3.2
				h0.8v3.4c0,0.6-0.2,1-0.5,1.4c-0.4,0.4-0.9,0.6-1.4,0.6s-1-0.2-1.4-0.6c-0.3-0.4-0.5-0.8-0.5-1.4v-3.4H82.8z"/>
			<path class="st1" d="M88.3,147.5v-5.3h0.8c0.4,0,0.6,0,0.8,0.1c0.2,0.1,0.4,0.1,0.5,0.3c0.1,0.1,0.3,0.3,0.4,0.5s0.1,0.4,0.1,0.6
				c0,0.4-0.1,0.7-0.4,1c0.3,0.1,0.5,0.3,0.7,0.5s0.2,0.5,0.2,0.8c0,0.4-0.1,0.8-0.4,1c-0.2,0.2-0.4,0.3-0.6,0.4
				c-0.2,0.1-0.5,0.1-0.9,0.1L88.3,147.5L88.3,147.5z M89.1,144.5h0.2c0.3,0,0.5-0.1,0.7-0.2c0.1-0.1,0.2-0.3,0.2-0.6
				c0-0.2-0.1-0.4-0.2-0.6c-0.1-0.1-0.3-0.2-0.6-0.2h-0.3C89.1,142.9,89.1,144.5,89.1,144.5z M89.1,146.8h0.5c0.4,0,0.6-0.1,0.8-0.2
				c0.2-0.2,0.3-0.3,0.3-0.6c0-0.2-0.1-0.4-0.3-0.6c-0.2-0.2-0.5-0.2-0.9-0.2h-0.4V146.8z"/>
			<path class="st1" d="M94.5,142.2v5.3h-0.8v-5.3H94.5z"/>
			<path class="st1" d="M97.7,144.3l2.1-2.1h1.1l-2.4,2.4l2.4,2.9h-1.1l-1.9-2.3l-0.2,0.2v2.2h-0.8v-5.3h0.8V144.3z"/>
			<path class="st1" d="M103.3,142l0.7,0.3l-1,2l-0.5-0.2L103.3,142z"/>
			<path class="st1" d="M109.2,143l-0.6,0.4c-0.1-0.2-0.2-0.3-0.3-0.4c-0.1-0.1-0.3-0.1-0.4-0.1c-0.2,0-0.4,0.1-0.6,0.2
				c-0.1,0.1-0.2,0.3-0.2,0.5c0,0.3,0.2,0.5,0.6,0.6l0.5,0.2c0.4,0.2,0.7,0.4,0.9,0.6c0.2,0.3,0.3,0.6,0.3,0.9
				c0,0.5-0.2,0.9-0.5,1.2s-0.7,0.5-1.2,0.5s-0.8-0.1-1.1-0.4c-0.3-0.3-0.5-0.7-0.6-1.1l0.8-0.2c0,0.3,0.1,0.5,0.2,0.6
				c0.2,0.2,0.4,0.3,0.7,0.3c0.2,0,0.5-0.1,0.6-0.3c0.2-0.2,0.2-0.4,0.2-0.6c0-0.1,0-0.2,0-0.3s-0.1-0.2-0.1-0.2
				c-0.1-0.1-0.1-0.1-0.2-0.2s-0.2-0.1-0.3-0.2l-0.5-0.2c-0.7-0.3-1.1-0.8-1.1-1.3c0-0.4,0.2-0.7,0.5-1s0.7-0.4,1.1-0.4
				C108.4,142.1,108.9,142.4,109.2,143z"/>
			<path class="st1" d="M115.6,145.4v2.1h-0.8v-5.3h0.9c0.4,0,0.8,0,1,0.1s0.4,0.2,0.6,0.3c0.3,0.3,0.5,0.7,0.5,1.1
				c0,0.5-0.2,0.9-0.5,1.1c-0.3,0.3-0.8,0.4-1.3,0.4h-0.4V145.4z M115.6,144.6h0.3c0.7,0,1.1-0.3,1.1-0.8s-0.4-0.8-1.1-0.8h-0.3
				V144.6z"/>
			<path class="st1" d="M120.6,142.2v3.2c0,0.5,0.1,0.8,0.2,1c0.2,0.3,0.5,0.5,0.9,0.5s0.7-0.2,0.9-0.5c0.1-0.2,0.2-0.5,0.2-1v-3.2
				h0.8v3.4c0,0.6-0.2,1-0.5,1.4c-0.4,0.4-0.9,0.6-1.4,0.6c-0.6,0-1-0.2-1.4-0.6c-0.3-0.4-0.5-0.8-0.5-1.4v-3.4H120.6z"/>
			<path class="st1" d="M127.1,146.8h2.5v0.7h-3.8l2.6-4.5h-2.2v-0.7h3.5L127.1,146.8z"/>
			<path class="st1" d="M132.7,146.8h2.5v0.7h-3.8l2.6-4.5h-2.2v-0.7h3.5L132.7,146.8z"/>
			<path class="st1" d="M138.1,142.2v4.5h1.6v0.7h-2.3v-5.3h0.7V142.2z"/>
			<path class="st1" d="M144.5,143h-2.1v1.3h2.1v0.7h-2.1v1.8h2.1v0.7h-2.9v-5.3h2.9V143z"/>
		</g>
		<g>
			<g>
				<path class="st1" d="M79.5,60.1c1.2,0,1.7,0,2.9,0c0,4.1,0,6.1,0,10.2c1-0.1,1.5-0.1,2.4-0.2c0-4,0-6,0-10.1c1.2,0,1.7,0,2.9,0
					c0,8.6,0,12.9,0,21.4c-1.2,0.1-1.7,0.2-2.9,0.4c0-3.6,0-5.4,0-8.9c-1,0.1-1.5,0.1-2.4,0.2c0,3.6,0,5.4,0,9.1
					c-1.2,0.2-1.7,0.3-2.9,0.4C79.5,73.6,79.5,69.1,79.5,60.1z"/>
				<path class="st1" d="M90.3,60.1c1.2,0,1.7,0,2.9,0c0,8.3,0,12.5,0,20.9c-1.2,0.1-1.7,0.2-2.9,0.3C90.3,72.8,90.3,68.6,90.3,60.1
					z"/>
				<path class="st1" d="M95.8,60.1c2.5,0,3.8,0,6.3,0c1.1,0,1.9,0.8,1.9,1.7c0,3,0,4.5,0,7.6c0,0.9-0.9,1.7-1.9,1.7
					c-1.4,0-2.1,0.1-3.4,0.1c0,3.7,0,5.6,0,9.3c-1.2,0.1-1.7,0.1-2.9,0.2c0-3.8,0-5.6,0-9.4C95.8,66.9,95.8,64.6,95.8,60.1z
					 M101.1,62.7c-1,0-1.5,0-2.5,0c0,2.4,0,3.5,0,5.9c1,0,1.5,0,2.5-0.1C101.1,66.2,101.1,65.1,101.1,62.7z"/>
				<path class="st1" d="M108.9,74.1c0,1.4,0,2.1,0,3.5c1,0,1.5,0,2.5,0c0-2.6,0-3.9,0-6.5c-1.4,0-2.1,0-3.4,0
					c-1.1,0-1.9-0.8-1.9-1.7c0-3,0-4.6,0-7.6c0-1,0.8-1.7,1.9-1.7c1.8,0,2.6,0,4.4,0c1.1,0,1.9,0.7,1.9,1.7c0,1.7,0,2.5,0,4.2
					c-1.2,0-1.7,0-2.9,0c0-1.3,0-2,0-3.3c-1,0-1.5,0-2.5,0c0,2.3,0,3.5,0,5.8c1.4,0,2.1,0,3.4,0c1.1,0,1.9,0.8,1.9,1.7
					c0,3.3,0,4.9,0,8.2c0,0.9-0.9,1.7-1.9,1.7c-1.8,0-2.6,0-4.4,0c-1,0-1.9-0.7-1.9-1.7c0-1.7,0-2.6,0-4.4
					C107.1,74.1,107.7,74.1,108.9,74.1z"/>
				<path class="st1" d="M118.4,62.7c-1,0-1.5,0-2.6,0c0-1,0-1.5,0-2.6c3.2,0,4.8,0,8.1,0c0,1.1,0,1.6,0,2.6c-1,0-1.5,0-2.6,0
					c0,7.1,0,10.6,0,17.7c-1.2-0.1-1.7-0.1-2.9-0.1C118.4,73.2,118.4,69.7,118.4,62.7z"/>
				<path class="st1" d="M133,81.3c-3-0.3-4.5-0.4-7.5-0.7c0-8.2,0-12.3,0-20.5c2.9,0,4.4,0,7.3,0c0,1.1,0,1.6,0,2.7
					c-1.7,0-2.6,0-4.4-0.1c0,2.3,0,3.4,0,5.7c1.2,0,1.8,0.1,3.1,0.1c0,1.1,0,1.6,0,2.7c-1.2-0.1-1.8-0.1-3.1-0.1c0,2.8,0,4.2,0,7
					c1.8,0.1,2.7,0.2,4.6,0.4C133,79.7,133,80.2,133,81.3z"/>
				<path class="st1" d="M140.6,72.8c-1-0.1-1.5-0.1-2.4-0.2c0,3.7,0,5.5,0,9.2c-1.2-0.2-1.7-0.2-2.9-0.4c0-8.6,0-12.9,0-21.4
					c2.4,0,3.6,0,6,0c1.1,0,1.9,0.9,1.9,1.9c0,3.1,0,4.7,0,7.8c0,0.8-1,1.5-1,1.5s1.3,1.2,1.3,2c0,3.7,0,5.6,0,9.3
					c-1.2-0.2-1.7-0.3-2.9-0.4C140.6,78.5,140.6,76.6,140.6,72.8z M138.2,69.9c0.8,0,1.3,0.1,2.1,0.1c0-2.8,0-4.2,0-7
					c-0.8,0-1.3,0-2.1,0C138.2,65.7,138.2,67.1,138.2,69.9z"/>
			</g>
		</g>
	</g>
</g>
</svg>
