<?xml version="1.0" encoding="utf-8"?>
<!-- Generator: Adobe Illustrator 22.1.0, SVG Export Plug-In . SVG Version: 6.00 Build 0)  -->
<svg version="1.1" id="Capa_1" xmlns="http://www.w3.org/2000/svg" xmlns:xlink="http://www.w3.org/1999/xlink" x="0px" y="0px"
	 viewBox="0 0 230 200" style="enable-background:new 0 0 230 200;" xml:space="preserve">
<style type="text/css">
	.st0{fill:#383433;}
	.st1{fill:#FFFFFF;}
</style>
<g>
	<g>
		<path class="st0" d="M183,37.8h-52H47.1c-6,0-6,0-6,1v0.3L115,179.8l73.9-140.7v-0.3C188.9,37.8,188.9,37.8,183,37.8z M115,175.3
			L43.9,39.9c6.6,0,30.2,0,30.2,0c1.1,0,97.9,0,112,0L115,175.3z"/>
		<path class="st0" d="M96.6,150.6c-27.8-6.9-47.1-31.7-47.1-60.4c0-7.7,0.4-15.8,3.3-23c0.2-0.6-0.1-1.2-0.6-1.5
			c-0.6-0.2-1.2,0.1-1.5,0.6c-3,7.6-3.4,15.9-3.4,23.8c0,29.7,20.1,55.4,48.8,62.5c0.1,0,0.2,0,0.3,0c0.5,0,1-0.3,1.1-0.8
			C97.5,151.4,97.2,150.8,96.6,150.6z"/>
		<path class="st0" d="M177.8,65.5c-0.6,0.2-0.9,0.9-0.6,1.5c3,7.4,3.4,15.5,3.4,23.3c0,28.4-19.2,53.2-46.6,60.2
			c-0.6,0.2-1,0.8-0.8,1.4c0.1,0.5,0.6,0.8,1.1,0.8c0.1,0,0.2,0,0.3,0c28.4-7.3,48.3-33,48.3-62.4c0-8-0.4-16.4-3.5-24.1
			C179,65.6,178.4,65.3,177.8,65.5z"/>
		<path class="st0" d="M74.5,37.1c0.3,0,0.5-0.1,0.7-0.3c11.1-9.3,25.3-14.4,39.8-14.4c14.2,0,28.1,4.9,39.1,13.8
			c0.5,0.4,1.2,0.3,1.6-0.2c0.4-0.5,0.3-1.2-0.2-1.6c-11.4-9.3-25.8-14.3-40.5-14.3c-15,0-29.7,5.3-41.2,14.9
			c-0.5,0.4-0.5,1.1-0.1,1.6C73.9,36.9,74.2,37.1,74.5,37.1z"/>
	</g>
	<g>
		<g>
			<g>
				<path class="st0" d="M161.4,68.5c-1-10.9-4-15.4-6.9-19.3c-0.1-0.1-0.3-0.2-0.4-0.1c-0.2,0.1-0.2,0.3-0.2,0.4
					c2.5,6,4.8,12,5,17.6l-1.4-1.4c-0.2-0.1-1.4-1.4-2.8-2.4c-0.5-2.6-1-4.3-2.9-6.4c-0.1-0.1-0.2-0.1-0.3,0c-0.1,0-0.1,0.1-0.1,0.2
					c0.7,2.2,1.5,4.2,1.5,5.3c-2.6-0.8-4-0.8-5.9-0.8c-0.1,0-0.1,0-0.1,0.1s0,0.1,0.1,0.2c2.3,1.3,6.1,2,6.8,3.9
					c1.1,2.7,1.8,7.3,0.3,9.3s-5,4-8.8,6.4l-4,7.7c0,0.1,0,0.1,0,0.2c1.2-1.5,2.6-2.8,4.3-4.1c3.9-2.9,6.4-4.5,8.9-5.7
					c2.1-1,3.8-3.1,5.6-4.2c1.8-1.2,2.8-1.6,3.2-3.5C163.5,70.8,162.7,69.6,161.4,68.5z M159,71c-0.2,0.4-0.4,0.8-0.8,1
					c-0.2,0.1-0.5,0.1-0.7,0s-0.4-0.4-0.4-0.6c-0.1-1.4-0.6-2.5-1.2-3.8l3,2.7C159.1,70.4,159.2,70.7,159,71z"/>
			</g>
			<g>
				<path class="st0" d="M76,75c-1.5-2-0.8-6.7,0.3-9.3c0.7-1.9,4.5-2.6,6.8-3.9c0.1,0,0.1-0.1,0.1-0.2c0-0.1-0.1-0.1-0.1-0.1
					c-2,0-3.4,0-5.9,0.8c0-1.1,0.8-3.1,1.5-5.3c0-0.1,0-0.2-0.1-0.2c-0.1-0.1-0.2,0-0.3,0c-1.9,2.1-2.4,3.8-2.9,6.4
					c-1.4,1-2.6,2.3-2.8,2.4L71.2,67c0.2-5.7,2.5-11.6,5-17.6c0-0.2,0-0.3-0.2-0.4c-0.2-0.1-0.3,0-0.4,0.1
					c-2.9,3.9-5.8,8.4-6.9,19.3c-1.3,1.1-2,2.3-1.8,3.3c0.4,1.9,1.4,2.3,3.2,3.5c1.9,1.2,3.6,3.3,5.6,4.2c2.5,1.2,4.9,2.8,8.9,5.7
					c1.4,1,2.5,2.1,3.5,3.2L84.2,81C80.7,78.8,77.4,76.9,76,75z M72.9,71.4c0,0.3-0.2,0.5-0.4,0.6c-0.2,0.1-0.5,0.1-0.7,0
					c-0.4-0.2-0.7-0.6-0.8-1c-0.1-0.3,0-0.6,0.2-0.7l3-2.7C73.6,68.9,73.1,69.9,72.9,71.4z"/>
			</g>
		</g>
		<g>
			<polygon class="st0" points="86.4,77.8 115,132.3 143.6,77.8 			"/>
		</g>
	</g>
	<g>
		<path class="st0" d="M87.5,52.5H90v9h2.1v-9h2.5v19.4h-2.5v-8H90v8h-2.5V52.5z"/>
		<path class="st0" d="M96.8,52.5h2.5v19.4h-2.5V52.5z"/>
		<path class="st0" d="M101.6,52.5h5.4c0.9,0,1.7,0.8,1.7,1.7v7.3c0,0.9-0.8,1.6-1.7,1.6h-2.9v8.8h-2.5v-8.8V52.5z M106.2,55h-2.1
			v5.6h2.1V55z"/>
		<path class="st0" d="M112.8,66.1v3.4h2.1v-6.3H112c-1,0-1.7-0.8-1.7-1.6v-7.4c0-1,0.7-1.7,1.7-1.7h3.8c0.9,0,1.7,0.7,1.7,1.6v4.1
			H115V55h-2.1v5.7h2.9c0.9,0,1.7,0.8,1.7,1.7v8c0,0.9-0.8,1.6-1.7,1.6H112c-0.9,0-1.7-0.7-1.7-1.6v-4.2h2.5V66.1z"/>
		<path class="st0" d="M121,55h-2.2v-2.5h6.9V55h-2.2v16.9H121V55z"/>
		<path class="st0" d="M133.6,71.9h-6.4V52.5h6.2V55h-3.7v5.4h2.6v2.5h-2.6v6.6h3.9V71.9z"/>
		<path class="st0" d="M140.1,63.7H138v8.2h-2.5V52.5h5.1c0.9,0,1.7,0.8,1.7,1.7V61c0,0.7-0.4,1.2-0.9,1.4c0.8,0.2,1.2,0.9,1.2,1.6
			v8h-2.5V63.7z M138,61.2h1.8V55H138V61.2z"/>
	</g>
	<path class="st1" d="M125.8,100.7h-2.5l0,0l-0.3-0.3h1.7c0.2,0,0.4-0.2,0.4-0.4c0-0.2-0.2-0.4-0.4-0.4h-2.4l-0.3-0.3h1.7
		c0.2,0,0.4-0.2,0.4-0.4c0-0.2-0.2-0.4-0.4-0.4h-2.4l-5.4-5.4l7.5-7.5c0.1,0.2,0.2,0.5,0.3,0.7l0.2,0.9l0.1,0.1c0,0,0.1,0,0.1-0.1
		l1.2-4.6v-0.1h-0.1l-4.4,1.2c-0.1,0-0.1,0.1-0.1,0.2s0.1,0.1,0.1,0.1l0.7,0.2c0.3,0.1,0.7,0.2,0.9,0.4l-7.6,7.6l-7.5-7.5
		c0.3-0.2,0.6-0.3,0.9-0.4l0.9-0.2l0.1-0.1c0,0,0-0.1-0.1-0.1l-4.6-1.2h-0.1v0.1l1.2,4.4c0,0.1,0.1,0.1,0.2,0.1s0.1-0.1,0.1-0.1
		l0.2-0.7c0.1-0.3,0.2-0.5,0.3-0.8l7.5,7.5l-5.4,5.4h-2.4c-0.2,0-0.4,0.2-0.4,0.4c0,0.2,0.2,0.4,0.4,0.4h1.7l-0.3,0.3h-2.4
		c-0.2,0-0.4,0.2-0.4,0.4c0,0.2,0.2,0.4,0.4,0.4h1.7l-0.3,0.3h-2.4c-0.2,0-0.4,0.2-0.4,0.4c0,0.2,0.2,0.4,0.4,0.4h2.6v2.6
		c0,0.2,0.2,0.4,0.4,0.4c0.2,0,0.4-0.2,0.4-0.4v-2.4l0.3-0.3v1.7c0,0.2,0.2,0.4,0.4,0.4c0.2,0,0.4-0.2,0.4-0.4v-2.4l0.3-0.3v1.7
		c0,0.2,0.2,0.4,0.4,0.4c0.2,0,0.4-0.2,0.4-0.4v-2.4l5.4-5.4l5.4,5.4v2.4c0,0.2,0.2,0.4,0.4,0.4c0.2,0,0.4-0.2,0.4-0.4v-1.7l0.3,0.3
		v2.4c0,0.2,0.2,0.4,0.4,0.4c0.2,0,0.4-0.2,0.4-0.4v-1.7l0.3,0.3l0,0v2.5c0,0.2,0.2,0.4,0.4,0.4c0.2,0,0.4-0.2,0.4-0.4v-2.6h2.6
		c0.2,0,0.4-0.2,0.4-0.4C126.2,100.9,126,100.7,125.8,100.7z"/>
</g>
</svg>
