<?xml version="1.0" encoding="utf-8"?>
<!-- Generator: Adobe Illustrator 22.1.0, SVG Export Plug-In . SVG Version: 6.00 Build 0)  -->
<svg version="1.1" id="badges" xmlns="http://www.w3.org/2000/svg" xmlns:xlink="http://www.w3.org/1999/xlink" x="0px" y="0px"
	 viewBox="0 0 230 200" style="enable-background:new 0 0 230 200;" xml:space="preserve">
<style type="text/css">
	.st0{fill:#383433;}
	.st1{fill:#2E3133;}
</style>
<g>
	<g>
		<path class="st0" d="M150.4,122.4c-4.9,5.4-12.2,5.6-19.1,4.9c1.9-5,3.3-10.3,4-15.9c4.1-3.5,7.7-7.1,11-11.4
			c3.4,4.6,6.2,9.5,6.4,15.4c0.4,0,0.8,0.2,1.1,0.2c-0.2-6.4-3.3-11.7-6.8-16.6c1.2-1.8,2.4-3.6,3.4-5.5c2.8-5.7,4.4-13,0-18.3
			c-4.9-5.2-12.7-5.6-19.8-4.7c-2.2-5-5.5-10.2-10.7-12.9c-3.9-2.2-9.4-1.5-12.9,1.3l0.8,0.8c1.8-1.4,3.9-2.2,6.2-2.3
			c7.5-0.2,12.5,7.1,15.3,13.1v0.3c-5.2,0.9-10.4,2.5-15.2,4.6c-4.8-1.7-9.5-3.2-14.7-3.9l-0.2-0.2c1-2.3,2.2-4.6,3.7-6.7l-0.8-0.8
			c-1.7,2.4-2.9,4.9-4.1,7.4c-0.5,0-0.9-0.1-1.3-0.2c-7-0.5-16.3,0.2-20.1,7.4c-3.4,7.8,1,15.5,5.4,21.6l-2,3.1l1,0.5l1.6-2.5
			l0.2-0.1c3.3,4,6.7,7.4,10.7,10.6c0.8,5.6,2.1,10.9,4.2,15.9v0.2c-6.2,0.7-13,0.8-17.9-4c-3.6-3.5-3.3-9.6-1.7-13.9
			c-0.4-0.1-0.7-0.2-1-0.5c-1.4,4.2-2,9.5,0.6,13.5c4.3,6.2,12.2,6.8,19.5,6.1c0.4,0,0.9-0.3,1.1,0c0.6,1.3,1.3,2.7,1.9,3.7
			c2,3.5,4.7,7.2,8.4,9.2c3.6,2.2,9.1,1.9,12.4-0.6c4.8-3.1,7.6-8.3,9.9-13.1c6.9,0.7,16,0.6,20.8-6
			C151.3,122.5,150.6,121.4,150.4,122.4z M135.6,109.7c0.6-6.3,0.8-13.8-0.1-20.3c3.7,2.9,7.1,6.2,10,9.8
			C142.7,103,139.3,106.5,135.6,109.7z M149,75.7c0.9,1,1.6,2,2.1,3.2c2.3,6-0.5,12-3.3,16.9l-1.5,2.3l-0.1,0
			c-3.2-4-6.9-7.4-10.8-10.5c-0.9-5.3-2.1-10.8-4.3-15.9C137.4,71,144.4,71.2,149,75.7z M129.8,71.9c2,4.6,3.2,9.5,4.1,14.6
			c-0.5-0.2-0.9-0.6-1.4-0.9c-5.3-3.7-11-7-16.9-9.5C120.1,74.1,124.9,72.8,129.8,71.9z M98.8,72.6c4.7,0.7,9.2,1.9,13.6,3.6
			c-6.1,3-12,6.5-17.5,10.8C95.6,81.9,96.9,77.1,98.8,72.6z M93.1,110c-3.2-2.8-6.9-6.2-9.6-9.7c2.8-3.7,6.2-7.3,9.7-10.4
			c-0.7,6.5-0.7,13.7,0,20.2L93.1,110z M93.5,88.1c-4,3.3-7.7,7.2-10.7,11.2h-0.1c-3.6-5.4-7.3-11.2-5.8-18.2
			c1-4.6,5.8-7.4,10.1-8.3c3.2-0.7,7.1-0.8,10.5-0.4v0.3C95.5,77.5,94.3,82.7,93.5,88.1z M94.6,88.7c5.9-4.8,12.5-8.9,19.4-12
			c7.1,2.8,13.9,6.7,20.2,11.4l0.1,0.3c1,7.2,0.9,15.8,0,22.3c-6,5-12.6,9-19.5,12.1c-7.3-2.9-13.9-6.8-20.2-11.8
			C93.6,104.3,93.6,95.8,94.6,88.7z M94.9,113c2.4,1.6,4.9,3.5,7.4,5c3.5,2.1,7.1,4,10.9,5.6v0.1c-4.6,1.8-9.4,3.4-14.2,4.2
			C97,123.2,95.6,117.9,94.9,113z M129.6,128.6c-2.8,6.4-8,14.2-16,13.9c-6.7-0.6-11.5-7.7-14.2-13.5c5.4-1,10.5-2.6,15.3-4.7
			c4.8,1.8,9.6,3.4,14.8,4.1V128.6z M130.2,127.1c-4.7-0.6-9.4-1.9-13.8-3.6c6.2-2.9,12.1-6.6,17.6-10.9
			C133.3,117.5,132.1,122.5,130.2,127.1z M102.7,61.4c0.2-0.5,0.4-1.1,1-1.4c1-0.5,2-0.5,2.8,0.3c0.5,0.5,0.6,1.1,0.6,1.8
			c-0.1,0.6-0.5,1.3-1.1,1.7c-0.7,0.5-1.7,0.3-2.3-0.1C103,63,102.6,62.2,102.7,61.4z M114.4,106c-2,0-3.9-1.2-5-2.9
			c-1.2-2.1-1.1-4.2-0.1-6.2c1.3-2.2,3.7-3.3,6.2-3c1.5,0.3,2.9,1.2,4,2.5c1.2,1.7,1.3,3.9,0.6,5.9
			C119.1,104.6,116.6,106.1,114.4,106z M77.1,107.8c-0.4-0.7-0.4-1.7,0.1-2.4c0.4-0.5,1-0.8,1.5-0.9c0.9,0,1.8,0.5,2.2,1.3
			c0.4,0.9,0.1,1.9-0.5,2.5c-0.5,0.5-1.2,0.6-1.8,0.6C78,108.8,77.4,108.4,77.1,107.8z M154.6,119.3c-0.1,0.6-0.6,1.3-1.2,1.6
			c-0.7,0.4-1.7,0.2-2.3-0.2c-0.6-0.5-0.7-1.1-0.9-1.7c0.1-0.9,0.6-1.9,1.6-2.2c0.8-0.3,1.8,0,2.3,0.7
			C154.5,118.1,154.7,118.6,154.6,119.3z"/>
		<path class="st1" d="M194.7,103.7c0,1-0.8,1.7-1.8,1.6c-0.9-0.1-1.7-0.9-1.6-1.8c0-0.9,0.8-1.6,1.8-1.6
			C194,102,194.7,102.8,194.7,103.7z M192.8,107.4c-0.9-0.1-1.7,0.6-1.9,1.5c-0.1,0.9,0.5,1.7,1.4,1.9c0.9,0.1,1.8-0.5,1.9-1.5
			C194.5,108.3,193.8,107.4,192.8,107.4z M192.1,112.7c-0.9-0.1-1.8,0.5-1.9,1.4c-0.1,0.9,0.5,1.8,1.4,2c0.9,0.2,1.8-0.4,1.9-1.3
			C193.6,113.7,193,112.9,192.1,112.7z M191,118c-0.9-0.2-1.8,0.3-2.1,1.2c-0.2,0.9,0.3,1.8,1.2,2.1c0.9,0.3,1.8-0.3,2.1-1.2
			C192.5,119.1,191.9,118.2,191,118z M189.7,123.2c-0.9-0.3-1.9,0.2-2.2,1s0.1,1.8,1,2.1c0.9,0.3,1.9-0.2,2.2-1
			C191,124.4,190.6,123.5,189.7,123.2z M187.8,128.3c-0.9-0.3-1.8,0.1-2.1,0.9c-0.3,0.9,0,1.8,0.9,2.2c0.8,0.4,1.9,0,2.2-0.9
			C189.1,129.6,188.7,128.6,187.8,128.3z M185.7,133.2c-0.8-0.4-1.8-0.1-2.2,0.8c-0.4,0.8,0,1.8,0.8,2.3c0.8,0.4,1.8,0.1,2.2-0.8
			C186.9,134.6,186.5,133.6,185.7,133.2z M183.3,138c-0.8-0.5-1.9-0.2-2.3,0.6c-0.5,0.8-0.2,1.8,0.6,2.3c0.8,0.5,1.8,0.2,2.3-0.6
			C184.3,139.5,184.1,138.5,183.3,138z M180.5,142.7c-0.8-0.5-1.8-0.3-2.3,0.5c-0.5,0.7-0.4,1.8,0.4,2.3c0.8,0.5,1.8,0.4,2.4-0.4
			C181.5,144.3,181.2,143.2,180.5,142.7z M177.3,147c-0.7-0.6-1.8-0.4-2.3,0.3c-0.5,0.7-0.4,1.8,0.3,2.4c0.7,0.6,1.8,0.5,2.3-0.3
			C178.2,148.7,178.1,147.6,177.3,147z M171.5,151.3c-0.6,0.7-0.6,1.7,0.1,2.4c0.7,0.6,1.7,0.6,2.4-0.1c0.6-0.7,0.6-1.8-0.1-2.4
			C173.2,150.6,172.2,150.7,171.5,151.3z M167.9,155.1c-0.7,0.6-0.7,1.7-0.1,2.4c0.6,0.7,1.7,0.7,2.4,0.1c0.7-0.6,0.7-1.7,0.1-2.4
			C169.6,154.6,168.6,154.5,167.9,155.1z M164,158.7c-0.7,0.6-0.8,1.6-0.2,2.3c0.6,0.7,1.7,0.9,2.4,0.3c0.7-0.6,0.8-1.7,0.2-2.4
			C165.7,158.2,164.6,158.1,164,158.7z M159.8,161.9c-0.7,0.5-0.9,1.6-0.4,2.4c0.5,0.8,1.6,0.9,2.3,0.4c0.8-0.6,0.9-1.6,0.4-2.4
			C161.5,161.5,160.5,161.3,159.8,161.9z M155.4,164.8c-0.8,0.5-1,1.5-0.5,2.3c0.5,0.8,1.5,1.1,2.3,0.6c0.8-0.5,1.1-1.5,0.5-2.3
			C157.2,164.6,156.2,164.4,155.4,164.8z M150.8,167.5c-0.8,0.4-1.1,1.4-0.7,2.2c0.4,0.8,1.5,1.2,2.3,0.8c0.9-0.4,1.1-1.5,0.7-2.3
			C152.6,167.4,151.7,167.1,150.8,167.5z M146.1,169.8c-0.8,0.4-1.2,1.4-0.8,2.3c0.4,0.9,1.4,1.2,2.2,0.8c0.9-0.4,1.2-1.4,0.8-2.3
			C147.9,169.8,146.9,169.4,146.1,169.8z M141.2,171.7c-0.9,0.3-1.3,1.3-1,2.2c0.3,0.9,1.3,1.3,2.2,1c0.9-0.3,1.3-1.3,1-2.2
			C143,171.9,142,171.4,141.2,171.7z M136.2,173.4c-0.9,0.2-1.4,1.1-1.2,2c0.2,0.9,1.2,1.4,2.1,1.2c0.9-0.2,1.4-1.2,1.2-2
			C138,173.7,137.1,173.2,136.2,173.4z M131.1,174.7c-0.9,0.3-1.5,1-1.3,2c0.2,0.9,1.1,1.6,2,1.3c0.9-0.2,1.5-1.2,1.3-2.1
			C132.8,175,131.9,174.5,131.1,174.7z M125.9,175.6c-0.9,0.1-1.5,1-1.4,1.9c0.1,0.9,1,1.6,1.9,1.4c0.9-0.1,1.6-1,1.4-1.9
			C127.6,176.1,126.8,175.4,125.9,175.6z M120.6,176.2c-0.9,0-1.6,0.8-1.6,1.8c0,0.9,0.9,1.7,1.8,1.6c1,0,1.7-0.8,1.6-1.8
			C122.3,176.8,121.5,176.1,120.6,176.2z M115.3,176.4c-0.9,0-1.7,0.7-1.7,1.6c0,0.9,0.7,1.8,1.7,1.7c1,0,1.7-0.8,1.7-1.8
			C117,177.1,116.3,176.4,115.3,176.4z M110.1,176.2c-0.9,0-1.7,0.7-1.8,1.6c-0.1,0.9,0.6,1.7,1.6,1.8c1,0,1.8-0.7,1.8-1.6
			C111.7,177,111,176.2,110.1,176.2z M104.8,175.7c-0.9-0.1-1.7,0.5-1.9,1.4c-0.1,0.9,0.5,1.8,1.4,1.9c0.9,0.1,1.8-0.5,1.9-1.4
			C106.4,176.7,105.7,175.8,104.8,175.7z M99.6,174.9c-0.9-0.2-1.8,0.3-2,1.2c-0.2,0.9,0.4,1.8,1.3,2.1c0.9,0.1,1.8-0.5,2-1.4
			C101.1,175.9,100.5,175,99.6,174.9z M94.5,173.6c-0.9-0.2-1.8,0.3-2.1,1.2c-0.3,0.9,0.3,1.8,1.2,2c0.9,0.2,1.9-0.3,2.1-1.2
			C95.9,174.7,95.4,173.8,94.5,173.6z M89.5,172c-0.9-0.3-1.8,0.1-2.1,1c-0.3,0.9,0.1,1.8,1,2.2c0.9,0.3,1.9-0.1,2.2-1
			C90.8,173.3,90.3,172.3,89.5,172z M84.5,170.1c-0.8-0.4-1.8,0-2.2,0.8c-0.4,0.8,0,1.9,0.8,2.3c0.8,0.4,1.9,0,2.2-0.9
			C85.8,171.4,85.3,170.5,84.5,170.1z M79.8,167.8c-0.8-0.4-1.8-0.1-2.3,0.7c-0.5,0.8-0.1,1.8,0.7,2.3c0.9,0.4,1.9,0.1,2.3-0.8
			C80.9,169.2,80.6,168.2,79.8,167.8z M75.2,165.2c-0.8-0.5-1.8-0.2-2.3,0.6c-0.5,0.8-0.3,1.8,0.6,2.3c0.8,0.5,1.9,0.2,2.3-0.6
			C76.2,166.7,76,165.6,75.2,165.2z M70.8,162.3c-0.7-0.5-1.8-0.4-2.3,0.4c-0.6,0.7-0.4,1.8,0.4,2.4c0.8,0.6,1.8,0.4,2.3-0.4
			C71.7,163.9,71.5,162.8,70.8,162.3z M66.6,159.1c-0.7-0.6-1.7-0.5-2.3,0.2c-0.6,0.7-0.5,1.8,0.2,2.4c0.8,0.6,1.8,0.4,2.4-0.3
			C67.4,160.7,67.3,159.7,66.6,159.1z M60.2,155.7c-0.7,0.7-0.6,1.7,0.1,2.4c0.7,0.6,1.8,0.6,2.4-0.1c0.6-0.7,0.6-1.8-0.1-2.4
			C62,155,60.9,155,60.2,155.7z M56.6,151.7c-0.7,0.6-0.7,1.7-0.1,2.4c0.6,0.7,1.7,0.8,2.4,0.1c0.7-0.7,0.7-1.7,0.1-2.4
			C58.3,151.2,57.3,151.1,56.6,151.7z M53.1,147.6c-0.7,0.6-0.9,1.6-0.3,2.4c0.5,0.8,1.7,0.8,2.4,0.2c0.7-0.6,0.8-1.6,0.2-2.4
			C54.9,147.1,53.9,147,53.1,147.6z M52.3,143.6c-0.6-0.7-1.6-0.9-2.4-0.4c-0.8,0.5-1,1.6-0.4,2.3c0.6,0.8,1.6,0.9,2.4,0.4
			C52.7,145.4,52.8,144.4,52.3,143.6z M49.5,139.2c-0.5-0.8-1.5-1-2.3-0.6c-0.8,0.5-1.1,1.5-0.6,2.3c0.5,0.8,1.5,1.1,2.3,0.6
			C49.7,141,49.9,140,49.5,139.2z M46.9,134.6c-0.4-0.8-1.4-1.2-2.2-0.8c-0.8,0.4-1.2,1.4-0.8,2.3c0.4,0.9,1.4,1.2,2.2,0.8
			C46.9,136.4,47.3,135.4,46.9,134.6z M44.6,129.8c-0.3-0.8-1.3-1.3-2.1-0.9c-0.9,0.3-1.3,1.4-1,2.2c0.4,0.9,1.4,1.2,2.3,0.9
			C44.6,131.6,45,130.6,44.6,129.8z M42.8,124.9c-0.3-0.9-1.3-1.3-2.2-1c-0.9,0.3-1.3,1.2-1,2.1c0.3,0.9,1.3,1.4,2.2,1
			C42.6,126.7,43.1,125.7,42.8,124.9z M40,121.9c0.9-0.3,1.4-1.2,1.2-2.1c-0.2-0.9-1.1-1.4-2.1-1.2c-0.9,0.2-1.4,1.1-1.2,2.1
			C38.2,121.6,39.1,122.2,40,121.9z M38.7,116.7c0.9-0.2,1.4-1.1,1.3-2c-0.1-0.9-1-1.5-1.9-1.3c-0.9,0.2-1.5,1-1.4,2
			C36.8,116.3,37.8,116.9,38.7,116.7z M37.8,111.4c0.9-0.1,1.6-1,1.4-1.9c-0.1-0.9-1-1.5-1.9-1.5c-0.9,0.1-1.6,0.9-1.4,1.9
			C36,110.9,36.8,111.5,37.8,111.4z M37.2,106c0.9-0.1,1.6-0.9,1.6-1.8c0-0.9-0.8-1.6-1.8-1.6c-0.9,0-1.7,0.8-1.6,1.8
			C35.4,105.4,36.2,106.1,37.2,106z M36.9,100.6c0.9,0,1.6-0.8,1.7-1.7c0-0.9-0.7-1.7-1.6-1.7c-0.9,0-1.7,0.7-1.8,1.7
			C35.1,99.9,35.9,100.6,36.9,100.6z M37.1,95.2c0.9,0.1,1.7-0.6,1.8-1.5c0-0.9-0.7-1.7-1.6-1.8c-0.9-0.1-1.7,0.6-1.8,1.5
			C35.4,94.4,36.2,95.2,37.1,95.2z M37.6,89.9c0.9,0.1,1.8-0.5,1.9-1.4s-0.5-1.8-1.4-1.9c-0.9-0.2-1.8,0.5-1.9,1.4
			C36,88.9,36.6,89.8,37.6,89.9z M38.4,84.5c0.9,0.2,1.8-0.4,2-1.3c0.2-0.9-0.3-1.8-1.2-2c-0.9-0.2-1.8,0.3-2.1,1.3
			C36.9,83.4,37.4,84.3,38.4,84.5z M39.7,79.3c0.9,0.2,1.8-0.3,2-1.2c0.2-0.9-0.2-1.8-1.1-2.1c-0.9-0.3-1.9,0.2-2.1,1.1
			C38.3,78.1,38.8,79.1,39.7,79.3z M41.3,74.2c0.9,0.3,1.9-0.1,2.2-1c0.3-0.9-0.1-1.8-1-2.2c-0.9-0.3-1.8,0.1-2.2,1
			C40,72.9,40.4,73.8,41.3,74.2z M43.2,69.1c0.9,0.4,1.9,0,2.3-0.8c0.4-0.8,0-1.8-0.8-2.2c-0.8-0.4-1.9,0-2.3,0.8
			C42,67.7,42.3,68.7,43.2,69.1z M45.5,64.2c0.8,0.4,1.8,0.1,2.2-0.7c0.5-0.8,0.2-1.8-0.6-2.3c-0.8-0.5-1.9-0.2-2.4,0.6
			C44.4,62.8,44.7,63.8,45.5,64.2z M48.2,59.5C49,60,50,59.8,50.5,59c0.5-0.8,0.2-1.8-0.6-2.3c-0.8-0.5-1.8-0.3-2.3,0.5
			C47.1,58,47.4,59.1,48.2,59.5z M51.1,55c0.8,0.5,1.8,0.4,2.4-0.3c0.5-0.7,0.4-1.8-0.4-2.4c-0.7-0.6-1.8-0.4-2.4,0.3
			C50.2,53.4,50.3,54.5,51.1,55z M54.3,50.7c0.7,0.6,1.7,0.5,2.4-0.2c0.6-0.7,0.5-1.7-0.2-2.3c-0.7-0.6-1.8-0.6-2.4,0.2
			C53.5,49,53.6,50.1,54.3,50.7z M60.3,46.6c0.6-0.7,0.6-1.7,0-2.4c-0.7-0.7-1.8-0.7-2.4,0c-0.6,0.7-0.6,1.8,0.1,2.4
			C58.6,47.3,59.7,47.3,60.3,46.6z M64.1,43c0.7-0.6,0.7-1.7,0.1-2.4c-0.6-0.7-1.7-0.8-2.4-0.1c-0.7,0.6-0.8,1.7-0.1,2.4
			C62.4,43.5,63.4,43.6,64.1,43z M68.5,37.3c-0.6-0.8-1.6-0.9-2.4-0.3c-0.8,0.6-0.9,1.6-0.3,2.3c0.6,0.7,1.7,0.9,2.4,0.3
			C68.9,39.1,69,38,68.5,37.3z M72.9,34.2c-0.5-0.8-1.6-1-2.4-0.5c-0.8,0.5-1,1.6-0.4,2.4c0.5,0.8,1.6,0.9,2.3,0.4
			C73.2,36,73.4,35,72.9,34.2z M77.5,31.4c-0.4-0.8-1.5-1.1-2.3-0.6c-0.8,0.5-1.1,1.5-0.6,2.3c0.5,0.8,1.5,1.1,2.3,0.6
			C77.7,33.2,77.9,32.2,77.5,31.4z M82.3,29c-0.4-0.8-1.4-1.2-2.3-0.8c-0.9,0.4-1.2,1.4-0.8,2.3c0.4,0.8,1.4,1.2,2.3,0.8
			C82.4,30.9,82.7,29.8,82.3,29z M87.3,26.9c-0.3-0.9-1.3-1.3-2.2-1c-0.9,0.3-1.3,1.3-0.9,2.2c0.4,0.8,1.3,1.2,2.2,0.9
			C87.2,28.8,87.6,27.8,87.3,26.9z M92.4,25.1c-0.3-0.9-1.2-1.4-2.1-1.1c-0.9,0.3-1.4,1.3-1.1,2.2c0.3,0.9,1.3,1.3,2.1,1
			C92.2,26.9,92.7,26,92.4,25.1z M97.6,23.8c-0.2-0.9-1.1-1.5-2-1.2c-0.9,0.2-1.5,1.2-1.2,2.1c0.3,0.9,1.2,1.4,2,1.2
			C97.3,25.6,97.8,24.7,97.6,23.8z M102.9,22.8c-0.1-0.9-1-1.6-2-1.4c-0.9,0.1-1.6,1-1.4,1.9c0.2,0.9,1.1,1.5,2,1.4
			C102.5,24.6,103.1,23.7,102.9,22.8z M106.4,20.6c-0.9,0.1-1.6,1-1.5,1.9c0.1,0.9,1,1.6,1.8,1.4c0.9-0.1,1.6-0.9,1.5-1.8
			C108.2,21.2,107.4,20.4,106.4,20.6z M111.9,20.2c-1,0-1.7,0.8-1.6,1.8c0.1,0.9,0.8,1.7,1.7,1.6c0.9,0,1.6-0.8,1.6-1.8
			C113.7,20.9,112.9,20.2,111.9,20.2z M117.4,20.2c-1,0-1.7,0.7-1.7,1.6c0,0.9,0.7,1.7,1.6,1.8c0.9,0,1.7-0.7,1.7-1.6
			C119.1,21,118.4,20.3,117.4,20.2z M122.9,20.5c-1,0-1.8,0.7-1.8,1.6c-0.1,0.9,0.6,1.7,1.5,1.8c0.9,0.1,1.7-0.5,1.8-1.5
			C124.5,21.5,123.9,20.6,122.9,20.5z M128.4,21.3c-0.9-0.1-1.8,0.5-1.9,1.4c-0.1,0.9,0.5,1.8,1.4,1.9c0.9,0.1,1.8-0.5,1.9-1.4
			C129.9,22.3,129.3,21.4,128.4,21.3z M133.8,22.4c-0.9-0.2-1.8,0.3-2,1.2c-0.2,0.9,0.4,1.8,1.2,2.1c0.9,0.2,1.8-0.3,2-1.2
			C135.3,23.6,134.7,22.6,133.8,22.4z M139.1,23.8c-0.9-0.3-1.9,0.3-2.1,1.2c-0.3,0.9,0.3,1.8,1.1,2.1c0.8,0.3,1.8-0.1,2.1-1
			C140.5,25.1,140,24.1,139.1,23.8z M144.3,25.7c-0.9-0.3-1.9,0.1-2.2,1c-0.3,0.9,0.1,1.8,1,2.2c0.9,0.3,1.8-0.1,2.2-1
			C145.6,27,145.2,26,144.3,25.7z M149.3,27.9c-0.9-0.4-1.9-0.1-2.2,0.8c-0.4,0.9,0,1.9,0.8,2.3c0.8,0.4,1.8,0,2.2-0.8
			C150.5,29.3,150.2,28.3,149.3,27.9z M154.8,32.8c0.5-0.8,0.2-1.9-0.6-2.3c-0.8-0.5-1.8-0.2-2.3,0.6c-0.4,0.8-0.1,1.8,0.6,2.3
			C153.3,33.8,154.4,33.6,154.8,32.8z M159.4,35.6c0.5-0.8,0.4-1.9-0.5-2.4c-0.8-0.5-1.9-0.3-2.4,0.5c-0.5,0.8-0.3,1.8,0.5,2.3
			C157.9,36.5,158.9,36.4,159.4,35.6z M161.4,39.2c0.7,0.5,1.8,0.4,2.4-0.3c0.6-0.7,0.4-1.8-0.3-2.4c-0.8-0.6-1.8-0.4-2.4,0.3
			C160.5,37.6,160.6,38.7,161.4,39.2z M167.8,42.4c0.6-0.7,0.6-1.8-0.1-2.4c-0.7-0.6-1.8-0.6-2.4,0.1c-0.6,0.7-0.5,1.8,0.1,2.4
			C166.1,43.1,167.2,43.1,167.8,42.4z M171.7,46.2c0.7-0.6,0.7-1.7,0.1-2.4c-0.7-0.7-1.8-0.6-2.4,0c-0.7,0.7-0.6,1.7,0,2.3
			C169.9,46.8,171,46.8,171.7,46.2z M175.3,50.2c0.7-0.6,0.8-1.6,0.1-2.4c-0.6-0.7-1.7-0.8-2.4-0.1c-0.7,0.6-0.8,1.7-0.1,2.4
			C173.5,50.7,174.6,50.8,175.3,50.2z M176.2,54.1c0.5,0.7,1.6,0.9,2.4,0.3c0.8-0.5,0.9-1.6,0.3-2.4c-0.6-0.8-1.6-0.9-2.4-0.3
			C175.8,52.4,175.6,53.4,176.2,54.1z M179.2,58.5c0.5,0.8,1.5,1,2.3,0.5c0.8-0.5,1-1.5,0.5-2.4c-0.5-0.8-1.5-1.1-2.3-0.5
			C179,56.6,178.7,57.7,179.2,58.5z M182,63c0.5,0.8,1.4,1.1,2.3,0.7c0.8-0.4,1.2-1.5,0.7-2.3c-0.5-0.8-1.6-1.1-2.4-0.6
			C181.7,61.2,181.5,62.2,182,63z M184.3,67.7c0.4,0.8,1.4,1.2,2.3,0.8c0.9-0.4,1.2-1.4,0.8-2.2c-0.4-0.9-1.4-1.2-2.3-0.8
			C184.3,65.9,183.9,66.9,184.3,67.7z M186.4,72.5c0.3,0.9,1.3,1.3,2.2,1c0.9-0.3,1.3-1.3,1-2.2c-0.3-0.9-1.3-1.3-2.2-1
			C186.5,70.7,186,71.7,186.4,72.5z M188.1,77.5c0.2,0.9,1.1,1.4,2,1.1c0.9-0.3,1.4-1.2,1.2-2.1c-0.3-0.9-1.3-1.4-2.2-1.1
			C188.3,75.7,187.9,76.6,188.1,77.5z M190.7,80.6c-0.9,0.2-1.5,1.1-1.2,2c0.2,0.9,1.2,1.4,2.1,1.3c0.9-0.2,1.5-1.1,1.2-2
			C192.5,80.9,191.6,80.4,190.7,80.6z M191.9,85.9c-0.9,0.2-1.6,1-1.4,1.9c0.1,0.9,1,1.5,1.9,1.4c0.9-0.1,1.6-1,1.4-1.9
			C193.6,86.3,192.8,85.7,191.9,85.9z M192.7,91.2c-0.9,0.1-1.5,0.9-1.5,1.8c0,0.9,0.8,1.6,1.8,1.5c0.9-0.1,1.6-0.9,1.6-1.8
			C194.5,91.8,193.6,91.1,192.7,91.2z M193,96.6c-0.9,0-1.7,0.8-1.6,1.7c0,0.9,0.8,1.6,1.8,1.6c0.9,0,1.7-0.8,1.6-1.7
			C194.8,97.3,194,96.5,193,96.6z"/>
		<g>
			<g>
				<path class="st0" d="M68.3,61l-0.9,1l4.2,3.6l-1.3,1.5l-10-8.6c-0.2-0.2-0.3-0.4-0.3-0.7c0-0.3,0.1-0.5,0.2-0.7l2.2-2.5
					c0.2-0.2,0.4-0.3,0.7-0.3s0.5,0.1,0.7,0.2l10,8.6l-1.3,1.5L68.3,61z M65.9,60.7l0.9-1l-3.6-3.1l-0.9,1L65.9,60.7z"/>
				<path class="st0" d="M69.9,49.8l-1,0.9l8.3,9l-1.4,1.3l-8.3-9l-1,0.9l-1.3-1.4l3.4-3.2L69.9,49.8z"/>
				<path class="st0" d="M83,54c0.2,0.2,0.2,0.5,0.2,0.7c0,0.3-0.2,0.5-0.4,0.6l-2.7,2c-0.2,0.2-0.5,0.2-0.7,0.2
					c-0.3,0-0.5-0.2-0.6-0.4l-7.2-9.9c-0.2-0.2-0.2-0.5-0.2-0.7c0-0.3,0.2-0.5,0.4-0.6l2.7-2c0.2-0.2,0.5-0.2,0.7-0.2
					c0.3,0,0.5,0.2,0.6,0.4L83,54z M80.9,54.4L74.8,46l-1.1,0.8l6.1,8.3L80.9,54.4z"/>
				<path class="st0" d="M90.7,50.7L89,51.7l-5.9-10.8l-0.4,0.2l5.9,10.8l-1.7,0.9L81,42l-0.4,0.2L86.5,53L84.8,54l-6.3-11.6
					c-0.1-0.2-0.1-0.5-0.1-0.7c0.1-0.3,0.2-0.5,0.5-0.6l4.2-2.3c0.2-0.1,0.5-0.1,0.7-0.1c0.3,0.1,0.5,0.2,0.6,0.5L90.7,50.7z"/>
				<path class="st0" d="M94,49.4l-1.8,0.7L86.7,37l1.8-0.7L94,49.4z"/>
				<path class="st0" d="M100.2,46.3c0.1,0.2,0,0.5-0.1,0.7c-0.1,0.2-0.3,0.4-0.6,0.5l-3.2,1c-0.2,0.1-0.5,0-0.7-0.1
					c-0.2-0.1-0.4-0.3-0.5-0.6l-3.6-11.7c-0.1-0.2-0.1-0.5,0.1-0.7c0.1-0.2,0.3-0.4,0.6-0.5l3.2-1c0.2-0.1,0.5,0,0.7,0.1
					c0.2,0.1,0.4,0.3,0.5,0.6l1.2,4L96,39.1l-1-3.1l-1.3,0.4l3,9.9l1.3-0.4l-0.4-1.4l1.9-0.6L100.2,46.3z"/>
				<path class="st0" d="M113.9,45.3l-1.6,0.1c-0.3,0-0.5-0.1-0.7-0.2c-0.2-0.2-0.3-0.4-0.3-0.7l-0.1-2.1c0-0.3-0.1-0.5-0.3-0.7
					c-0.2-0.2-0.4-0.3-0.7-0.2l-0.4,0l0.3,4l-1.9,0.1l-0.9-13.2c0-0.3,0.1-0.5,0.2-0.7c0.2-0.2,0.4-0.3,0.7-0.3l3.3-0.2
					c0.3,0,0.5,0.1,0.7,0.2c0.2,0.2,0.3,0.4,0.3,0.7l0.4,6.7c0,0.3-0.1,0.5-0.2,0.7c-0.2,0.2-0.4,0.3-0.7,0.3c0.3,0,0.5,0.1,0.7,0.2
					c0.2,0.2,0.3,0.4,0.3,0.7l0.2,2.6l0.6,0L113.9,45.3z M110.8,38l-0.3-4.7l-1.3,0.1l0.3,4.7L110.8,38z"/>
				<path class="st0" d="M118.4,39.9l-1.4-0.1l-0.2,3.6l1.4,0.1l0.1-1.5l1.9,0.1l-0.1,2.5c0,0.3-0.1,0.5-0.3,0.7
					c-0.2,0.2-0.4,0.3-0.7,0.3l-3.3-0.2c-0.3,0-0.5-0.1-0.7-0.3c-0.2-0.2-0.3-0.4-0.3-0.7l0.7-12.2c0-0.3,0.1-0.5,0.3-0.7
					c0.2-0.2,0.4-0.3,0.7-0.3l3.3,0.2c0.3,0,0.5,0.1,0.7,0.3c0.2,0.2,0.3,0.4,0.3,0.7l-0.2,4.2l-1.9-0.1l0.2-3.2l-1.4-0.1l-0.3,4.7
					l1.4,0.1L118.4,39.9z"/>
				<path class="st0" d="M126.8,45.7c0,0.3-0.2,0.5-0.4,0.6c-0.2,0.2-0.5,0.2-0.7,0.2l-3.3-0.6c-0.3,0-0.5-0.2-0.6-0.4
					c-0.2-0.2-0.2-0.5-0.2-0.7l2.1-12.1c0-0.3,0.2-0.5,0.4-0.6c0.2-0.2,0.5-0.2,0.7-0.2l3.3,0.6c0.3,0,0.5,0.2,0.6,0.4
					c0.2,0.2,0.2,0.5,0.2,0.7l-0.7,4.2l-1.9-0.3l0.6-3.2l-1.3-0.2l-1.8,10.2l1.3,0.2l0.3-1.5l1.9,0.3L126.8,45.7z"/>
				<path class="st0" d="M133.5,47.5c-0.1,0.3-0.2,0.4-0.5,0.6c-0.2,0.1-0.5,0.2-0.7,0.1l-3.2-1c-0.3-0.1-0.4-0.2-0.6-0.5
					c-0.1-0.2-0.2-0.5-0.1-0.7l3.5-11.7c0.1-0.3,0.2-0.4,0.5-0.6c0.2-0.1,0.5-0.2,0.7-0.1l3.2,1c0.2,0.1,0.4,0.2,0.6,0.5
					c0.1,0.2,0.2,0.5,0.1,0.7L133.5,47.5z M131.9,46l3-9.9l-1.3-0.4l-3,9.9L131.9,46z"/>
				<path class="st0" d="M139.9,51.3l-1.4-0.6c-0.2-0.1-0.4-0.3-0.5-0.5c-0.1-0.3-0.1-0.5,0-0.7l0.8-1.9c0.1-0.2,0.1-0.5,0-0.7
					c-0.1-0.3-0.3-0.4-0.5-0.5L138,46l-1.6,3.7l-1.8-0.8l5.3-12.1c0.1-0.2,0.3-0.4,0.5-0.5c0.3-0.1,0.5-0.1,0.7,0l3,1.3
					c0.2,0.1,0.4,0.3,0.5,0.5c0.1,0.3,0.1,0.5,0,0.7L142,45c-0.1,0.2-0.3,0.4-0.5,0.5c-0.3,0.1-0.5,0.1-0.7,0
					c0.3,0.1,0.4,0.3,0.5,0.5c0.1,0.2,0.1,0.5,0,0.7l-1.1,2.4l0.6,0.2L139.9,51.3z M140.6,43.4l1.9-4.3l-1.2-0.5l-1.9,4.3
					L140.6,43.4z"/>
				<path class="st0" d="M145.7,53.5c-0.1,0.2-0.3,0.4-0.6,0.4c-0.3,0.1-0.5,0-0.7-0.1l-2.9-1.7c-0.2-0.1-0.4-0.3-0.4-0.6
					c-0.1-0.3,0-0.5,0.1-0.7l6.2-10.6c0.1-0.2,0.3-0.4,0.6-0.4c0.3-0.1,0.5,0,0.7,0.1l2.9,1.7c0.2,0.1,0.4,0.3,0.4,0.6
					c0.1,0.3,0,0.5-0.1,0.7L145.7,53.5z M144.5,51.7l5.2-8.9l-1.2-0.7l-5.2,8.9L144.5,51.7z"/>
				<path class="st0" d="M151.2,57.6c-0.2,0.2-0.4,0.3-0.6,0.4c-0.3,0-0.5,0-0.7-0.2l-2.6-2c-0.2-0.2-0.3-0.4-0.4-0.6
					c0-0.3,0-0.5,0.2-0.7l1.5-1.9l1.5,1.2l-0.9,1.2l1.1,0.8l2.8-3.6l-1.9-1.4c-0.2-0.2-0.3-0.4-0.4-0.6c0-0.3,0-0.5,0.2-0.7l3.5-4.5
					c0.2-0.2,0.4-0.3,0.6-0.4c0.3,0,0.5,0,0.7,0.2l2.6,2c0.2,0.2,0.3,0.4,0.4,0.6c0,0.3,0,0.5-0.2,0.7l-2.6,3.4l-1.5-1.2l2-2.6
					l-1.1-0.8l-2.3,3L155,51c0.2,0.2,0.3,0.4,0.4,0.6c0,0.3,0,0.5-0.2,0.7L151.2,57.6z"/>
				<path class="st0" d="M172.6,80.3l-0.5-1.3L167,81l-0.7-1.8l12.4-4.6c0.2-0.1,0.5-0.1,0.7,0c0.3,0.1,0.4,0.3,0.5,0.5l1.2,3.1
					c0.1,0.2,0.1,0.5,0,0.7c-0.1,0.3-0.3,0.4-0.5,0.5l-12.4,4.6l-0.7-1.8L172.6,80.3z M174,78.4l0.5,1.3l4.4-1.7l-0.5-1.3L174,78.4z
					"/>
				<path class="st0" d="M181.6,87.2l-0.3-1.3l-11.9,2.9l-0.5-1.9l11.9-2.9l-0.3-1.3l1.9-0.5l1.1,4.5L181.6,87.2z"/>
				<path class="st0" d="M171.6,96.6c-0.3,0-0.5,0-0.7-0.2c-0.2-0.2-0.3-0.4-0.4-0.6l-0.4-3.3c0-0.3,0-0.5,0.2-0.7
					c0.2-0.2,0.4-0.3,0.6-0.4l12.2-1.5c0.3,0,0.5,0,0.7,0.2c0.2,0.2,0.3,0.4,0.4,0.6l0.4,3.3c0,0.3,0,0.5-0.2,0.7
					c-0.2,0.2-0.4,0.3-0.6,0.4L171.6,96.6z M172.4,94.6l10.2-1.3l-0.2-1.4l-10.2,1.3L172.4,94.6z"/>
				<path class="st0" d="M170.8,104.9l0-1.9l12.3,0.1l0-0.5l-12.3-0.1l0-1.9l12.3,0.1l0-0.5l-12.3-0.1l0-1.9l13.2,0.1
					c0.3,0,0.5,0.1,0.7,0.3c0.2,0.2,0.3,0.4,0.3,0.7l0,4.8c0,0.2-0.1,0.5-0.3,0.7c-0.2,0.2-0.4,0.3-0.7,0.3L170.8,104.9z"/>
				<path class="st0" d="M170.4,108.4l0.2-1.9l14.1,1.6l-0.2,1.9L170.4,108.4z"/>
				<path class="st0" d="M170.1,115.4c-0.3-0.1-0.5-0.2-0.6-0.4s-0.2-0.5-0.1-0.7l0.7-3.2c0.1-0.3,0.2-0.5,0.4-0.6
					c0.2-0.2,0.5-0.2,0.7-0.1l12,2.5c0.3,0.1,0.5,0.2,0.6,0.4c0.2,0.2,0.2,0.5,0.1,0.7l-0.7,3.2c-0.1,0.3-0.2,0.5-0.4,0.6
					c-0.2,0.2-0.5,0.2-0.7,0.1l-4.1-0.9l0.4-1.9l3.2,0.7l0.3-1.3l-10.1-2.1l-0.3,1.3l1.4,0.3l-0.4,1.9L170.1,115.4z"/>
				<path class="st0" d="M164.3,127.8l0.7-1.4c0.1-0.2,0.3-0.4,0.6-0.5c0.3-0.1,0.5-0.1,0.7,0l1.9,0.9c0.2,0.1,0.5,0.1,0.7,0
					c0.3-0.1,0.4-0.3,0.6-0.5l0.2-0.3l-3.7-1.7l0.8-1.8l12,5.6c0.2,0.1,0.4,0.3,0.5,0.6c0.1,0.3,0.1,0.5,0,0.7l-1.4,3
					c-0.1,0.2-0.3,0.4-0.6,0.5s-0.5,0.1-0.7,0l-6.1-2.8c-0.2-0.1-0.4-0.3-0.5-0.6c-0.1-0.3-0.1-0.5,0-0.7c-0.1,0.2-0.3,0.4-0.5,0.5
					c-0.3,0.1-0.5,0.1-0.7,0l-2.4-1.1l-0.3,0.6L164.3,127.8z M172.2,128.7l4.3,2l0.6-1.2l-4.3-2L172.2,128.7z"/>
				<path class="st0" d="M166.9,134.4l0.8-1.2l-3.1-1.9l-0.7,1.2l1.3,0.8l-1,1.7l-2.1-1.3c-0.2-0.1-0.4-0.3-0.4-0.6
					c-0.1-0.3,0-0.5,0.1-0.7l1.7-2.8c0.1-0.2,0.3-0.4,0.6-0.4c0.3-0.1,0.5,0,0.7,0.1l10.4,6.5c0.2,0.1,0.4,0.3,0.4,0.6
					c0.1,0.3,0,0.5-0.1,0.7l-1.7,2.8c-0.1,0.2-0.3,0.4-0.6,0.4c-0.3,0.1-0.5,0-0.7-0.1l-3.6-2.2l1-1.7l2.8,1.7l0.7-1.2l-4-2.5
					l-0.8,1.2L166.9,134.4z"/>
				<path class="st0" d="M157.8,139c-0.2-0.2-0.3-0.4-0.3-0.7c0-0.3,0-0.5,0.2-0.7l2.1-2.6c0.2-0.2,0.4-0.3,0.7-0.3
					c0.3,0,0.5,0,0.7,0.2l9.6,7.7c0.2,0.2,0.3,0.4,0.3,0.7c0,0.3,0,0.5-0.2,0.7l-2.1,2.6c-0.2,0.2-0.4,0.3-0.7,0.3
					c-0.3,0-0.5,0-0.7-0.2l-3.3-2.6l1.2-1.5l2.5,2l0.9-1.1l-8-6.5l-0.9,1.1l1.1,0.9l-1.2,1.5L157.8,139z"/>
				<path class="st0" d="M153,143.9c-0.2-0.2-0.3-0.4-0.3-0.7c0-0.3,0.1-0.5,0.3-0.7l2.4-2.3c0.2-0.2,0.4-0.3,0.7-0.3
					c0.3,0,0.5,0.1,0.7,0.3l8.6,8.8c0.2,0.2,0.3,0.4,0.3,0.7c0,0.3-0.1,0.5-0.3,0.7l-2.4,2.3c-0.2,0.2-0.4,0.3-0.7,0.3
					s-0.5-0.1-0.7-0.3L153,143.9z M155.1,143.2l7.2,7.4l1-1l-7.2-7.4L155.1,143.2z"/>
				<path class="st0" d="M146.6,147.7l1.3-1c0.2-0.2,0.4-0.2,0.7-0.2c0.3,0,0.5,0.2,0.6,0.4l1.3,1.7c0.2,0.2,0.4,0.3,0.6,0.4
					c0.3,0,0.5,0,0.7-0.2l0.3-0.2l-2.5-3.2l1.5-1.2l8.1,10.5c0.2,0.2,0.2,0.4,0.2,0.7c0,0.3-0.2,0.5-0.4,0.6l-2.6,2
					c-0.2,0.2-0.4,0.2-0.7,0.2c-0.3,0-0.5-0.2-0.6-0.4l-4.1-5.3c-0.2-0.2-0.2-0.4-0.2-0.7c0-0.3,0.2-0.5,0.4-0.6
					c-0.2,0.2-0.5,0.2-0.7,0.2c-0.3,0-0.5-0.2-0.6-0.4l-1.6-2.1l-0.5,0.4L146.6,147.7z M153.2,152.1l2.9,3.8l1.1-0.8l-2.9-3.8
					L153.2,152.1z"/>
				<path class="st0" d="M141.8,151.8c-0.1-0.2-0.2-0.5-0.1-0.7c0.1-0.3,0.2-0.5,0.4-0.6l2.9-1.7c0.2-0.1,0.5-0.2,0.7-0.1
					c0.3,0.1,0.5,0.2,0.6,0.4l6.3,10.5c0.1,0.2,0.2,0.5,0.1,0.7c-0.1,0.3-0.2,0.5-0.4,0.6l-2.9,1.7c-0.2,0.1-0.5,0.2-0.7,0.1
					c-0.3-0.1-0.5-0.2-0.6-0.4L141.8,151.8z M144,151.6l5.3,8.9l1.2-0.7l-5.3-8.9L144,151.6z"/>
				<path class="st0" d="M135.6,154.6c-0.1-0.2-0.1-0.5,0-0.7c0.1-0.3,0.3-0.4,0.5-0.5l3-1.3c0.2-0.1,0.5-0.1,0.7,0
					c0.3,0.1,0.4,0.3,0.5,0.5l1,2.2l-1.8,0.8l-0.6-1.3l-1.2,0.6l1.9,4.2l2.1-0.9c0.2-0.1,0.5-0.1,0.7,0c0.3,0.1,0.4,0.3,0.5,0.5
					l2.3,5.2c0.1,0.2,0.1,0.5,0,0.7c-0.1,0.3-0.3,0.4-0.5,0.5l-3,1.3c-0.2,0.1-0.5,0.1-0.7,0c-0.3-0.1-0.4-0.3-0.5-0.5l-1.7-3.9
					l1.8-0.8l1.3,3l1.2-0.6l-1.5-3.4l-2.1,0.9c-0.2,0.1-0.5,0.1-0.7,0c-0.3-0.1-0.4-0.3-0.5-0.5L135.6,154.6z"/>
				<path class="st0" d="M105.3,162.4l1.3,0.2l0.8-5.5l1.9,0.3l-1.9,13.1c0,0.3-0.2,0.5-0.4,0.6c-0.2,0.2-0.5,0.2-0.7,0.2l-3.3-0.5
					c-0.3,0-0.5-0.2-0.6-0.4c-0.2-0.2-0.2-0.5-0.2-0.7l1.9-13.1l1.9,0.3L105.3,162.4z M106.4,164.5l-1.3-0.2l-0.7,4.7l1.3,0.2
					L106.4,164.5z"/>
				<path class="st0" d="M95,166.9l1.3,0.4l3.2-11.8l1.9,0.5l-3.2,11.8l1.3,0.4l-0.5,1.9l-4.5-1.2L95,166.9z"/>
				<path class="st0" d="M91.6,153.7c0.1-0.2,0.3-0.4,0.5-0.5c0.3-0.1,0.5-0.1,0.7,0l3.1,1.2c0.2,0.1,0.4,0.3,0.5,0.5
					c0.1,0.3,0.1,0.5,0,0.7L91.9,167c-0.1,0.2-0.3,0.4-0.5,0.5c-0.3,0.1-0.5,0.1-0.7,0l-3.1-1.2c-0.2-0.1-0.4-0.3-0.5-0.5
					c-0.1-0.3-0.1-0.5,0-0.7L91.6,153.7z M93,155.3l-3.8,9.6l1.3,0.5l3.8-9.6L93,155.3z"/>
				<path class="st0" d="M84.7,149l1.7,0.9l-6,10.7l0.4,0.2l6-10.7l1.7,0.9l-6,10.7l0.4,0.2l6-10.7l1.7,0.9l-6.4,11.6
					c-0.1,0.2-0.3,0.4-0.6,0.5c-0.3,0.1-0.5,0-0.7-0.1l-4.2-2.3c-0.2-0.1-0.4-0.3-0.4-0.6c-0.1-0.3-0.1-0.5,0.1-0.7L84.7,149z"/>
				<path class="st0" d="M81.8,146.9l1.6,1.1l-8.2,11.6l-1.6-1.1L81.8,146.9z"/>
				<path class="st0" d="M75.8,143.2c0.2-0.2,0.4-0.3,0.7-0.3c0.3,0,0.5,0.1,0.7,0.2l2.5,2.2c0.2,0.2,0.3,0.4,0.3,0.7
					c0,0.3-0.1,0.5-0.2,0.7l-8,9.3c-0.2,0.2-0.4,0.3-0.7,0.3c-0.3,0-0.5-0.1-0.7-0.2l-2.5-2.2c-0.2-0.2-0.3-0.4-0.3-0.7
					c0-0.3,0.1-0.5,0.2-0.7l2.8-3.2l1.5,1.3l-2.1,2.5l1,0.9l6.7-7.8l-1-0.9l-1,1.1l-1.5-1.3L75.8,143.2z"/>
				<path class="st0" d="M67.7,132.2l0.9,1.3c0.2,0.2,0.2,0.5,0.2,0.7c0,0.3-0.2,0.5-0.4,0.6l-1.7,1.2c-0.2,0.2-0.3,0.4-0.4,0.6
					c0,0.3,0,0.5,0.2,0.7l0.2,0.3l3.3-2.4l1.2,1.6l-10.7,7.8c-0.2,0.2-0.5,0.2-0.7,0.2c-0.3,0-0.5-0.2-0.6-0.4l-1.9-2.7
					c-0.2-0.2-0.2-0.5-0.2-0.7c0-0.3,0.2-0.5,0.4-0.6l5.4-4c0.2-0.2,0.5-0.2,0.7-0.2c0.3,0,0.5,0.2,0.6,0.4
					c-0.2-0.2-0.2-0.5-0.2-0.7c0-0.3,0.2-0.5,0.4-0.6l2.1-1.6l-0.4-0.5L67.7,132.2z M63.2,138.7l-3.8,2.8l0.8,1.1l3.8-2.8
					L63.2,138.7z"/>
				<path class="st0" d="M60.8,131.2l0.7,1.2l3.2-1.8l-0.7-1.2l-1.3,0.7l-1-1.7l2.1-1.2c0.2-0.1,0.5-0.2,0.7-0.1
					c0.3,0.1,0.5,0.2,0.6,0.5l1.6,2.9c0.1,0.2,0.2,0.5,0.1,0.7c-0.1,0.3-0.2,0.5-0.5,0.6l-10.7,6c-0.2,0.1-0.5,0.2-0.7,0.1
					c-0.3-0.1-0.5-0.2-0.6-0.5l-1.6-2.9c-0.1-0.2-0.2-0.5-0.1-0.7c0.1-0.3,0.2-0.5,0.5-0.6l3.7-2.1l1,1.7l-2.8,1.6l0.7,1.2l4.1-2.3
					l-0.7-1.2L60.8,131.2z"/>
				<path class="st0" d="M61.1,121.1c0.2-0.1,0.5-0.1,0.7,0c0.3,0.1,0.4,0.3,0.5,0.5l1.3,3.1c0.1,0.2,0.1,0.5,0,0.7
					c-0.1,0.3-0.3,0.4-0.5,0.5l-11.3,4.7c-0.2,0.1-0.5,0.1-0.7,0c-0.3-0.1-0.4-0.3-0.5-0.5l-1.3-3.1c-0.1-0.2-0.1-0.5,0-0.7
					c0.1-0.3,0.3-0.4,0.5-0.5l3.9-1.6l0.7,1.8l-3,1.2l0.5,1.3l9.5-3.9l-0.5-1.3l-1.4,0.6l-0.7-1.8L61.1,121.1z"/>
				<path class="st0" d="M59.1,114.5c0.3-0.1,0.5,0,0.7,0.1c0.2,0.1,0.4,0.3,0.5,0.6l0.9,3.2c0.1,0.3,0,0.5-0.1,0.7
					c-0.1,0.2-0.3,0.4-0.6,0.5l-11.8,3.3c-0.3,0.1-0.5,0-0.7-0.1c-0.2-0.1-0.4-0.3-0.5-0.6l-0.9-3.2c-0.1-0.3,0-0.5,0.1-0.7
					c0.1-0.2,0.3-0.4,0.6-0.5L59.1,114.5z M58.7,116.7l-9.9,2.8l0.4,1.3l9.9-2.8L58.7,116.7z"/>
				<path class="st0" d="M58.9,107l0.2,1.6c0,0.3,0,0.5-0.2,0.7c-0.2,0.2-0.4,0.4-0.6,0.4l-2.1,0.3c-0.3,0-0.5,0.2-0.6,0.4
					c-0.2,0.2-0.2,0.5-0.2,0.7l0.1,0.4l4-0.6l0.3,1.9l-13.1,2c-0.3,0-0.5,0-0.7-0.2c-0.2-0.2-0.4-0.4-0.4-0.6l-0.5-3.3
					c0-0.3,0-0.5,0.2-0.7c0.2-0.2,0.4-0.4,0.6-0.4l6.6-1c0.3,0,0.5,0,0.7,0.2c0.2,0.2,0.4,0.4,0.4,0.6c0-0.3,0-0.5,0.2-0.7
					c0.2-0.2,0.4-0.3,0.6-0.4l2.6-0.4l-0.1-0.6L58.9,107z M51.8,110.7l-4.7,0.7l0.2,1.3L52,112L51.8,110.7z"/>
				<path class="st0" d="M57.6,100.9c0.3,0,0.5,0.1,0.7,0.3c0.2,0.2,0.3,0.4,0.3,0.7l0.1,3.3c0,0.3-0.1,0.5-0.3,0.7
					c-0.2,0.2-0.4,0.3-0.7,0.3l-12.3,0.4c-0.3,0-0.5-0.1-0.7-0.3c-0.2-0.2-0.3-0.4-0.3-0.7l-0.1-3.3c0-0.3,0.1-0.5,0.3-0.7
					c0.2-0.2,0.4-0.3,0.7-0.3L57.6,100.9z M56.7,102.9l-10.3,0.3l0,1.4l10.3-0.3L56.7,102.9z"/>
				<path class="st0" d="M58.1,94.1c0.3,0,0.5,0.1,0.7,0.4c0.2,0.2,0.3,0.4,0.2,0.7l-0.3,3.3c0,0.3-0.1,0.5-0.4,0.7
					c-0.2,0.2-0.4,0.3-0.7,0.2l-2.4-0.2l0.2-1.9l1.5,0.1L57,96l-4.6-0.4l-0.2,2.3c0,0.3-0.1,0.5-0.4,0.7c-0.2,0.2-0.4,0.3-0.7,0.2
					l-5.7-0.5c-0.3,0-0.5-0.1-0.7-0.4c-0.2-0.2-0.3-0.4-0.2-0.7l0.3-3.3c0-0.3,0.1-0.5,0.4-0.7c0.2-0.2,0.4-0.3,0.7-0.2l4.2,0.4
					l-0.2,1.9L46.7,95l-0.1,1.4l3.8,0.3l0.2-2.3c0-0.3,0.1-0.5,0.4-0.7c0.2-0.2,0.4-0.3,0.7-0.2L58.1,94.1z"/>
			</g>
		</g>
	</g>
	<g>
		<path class="st0" d="M54.5,77c0.2-0.5,0.4-1.1,1-1.4c0.9-0.5,2-0.5,2.8,0.3c0.5,0.5,0.6,1.1,0.6,1.8c-0.1,0.6-0.5,1.3-1.1,1.7
			c-0.7,0.5-1.7,0.3-2.3-0.1C54.7,78.6,54.3,77.8,54.5,77z"/>
		<path class="st0" d="M162.8,62.5c0.2-0.5,0.4-1.1,1-1.4c1-0.5,2-0.5,2.8,0.3c0.5,0.5,0.6,1.1,0.6,1.8c-0.1,0.6-0.5,1.3-1.1,1.7
			c-0.7,0.5-1.7,0.3-2.3-0.1C163,64.2,162.6,63.3,162.8,62.5z"/>
		<path class="st0" d="M121.8,164.5c0.2-0.5,0.4-1.1,1-1.4c1-0.5,2-0.5,2.8,0.3c0.5,0.5,0.6,1.1,0.6,1.8c-0.1,0.6-0.5,1.3-1.1,1.7
			c-0.7,0.5-1.7,0.3-2.3-0.1C122.1,166.2,121.7,165.4,121.8,164.5z"/>
	</g>
</g>
</svg>
