<?xml version="1.0" encoding="utf-8"?>
<!-- Generator: Adobe Illustrator 22.1.0, SVG Export Plug-In . SVG Version: 6.00 Build 0)  -->
<svg version="1.1" id="Capa_1" xmlns="http://www.w3.org/2000/svg" xmlns:xlink="http://www.w3.org/1999/xlink" x="0px" y="0px"
	 viewBox="0 0 230 200" style="enable-background:new 0 0 230 200;" xml:space="preserve">
<style type="text/css">
	.st0{fill:#383433;}
	.st1{fill:#FFFFFF;}
</style>
<g>
	<g>
		<path class="st0" d="M182,119.6c0,29.9-57.5,54.8-59.9,55.8c-2.9,1.2-5.1,2.2-6.2,2.6c-0.1,0.1-0.2,0.2-0.3,0.3h-1.3
			c0-0.2-0.1-0.3-0.3-0.4c-1-0.4-3.2-1.4-6.2-2.7c-2.4-1-59.9-25.9-59.9-55.8v-90c0-4.4,3.6-7.9,7.9-7.9H174c4.4,0,7.9,3.5,7.9,7.9
			v90.2H182z"/>
		<g>
			<path class="st0" d="M177.5,16h-125c-5.2,0-9.4,4.2-9.4,9.4v95.3c0,32.4,61.4,58.9,64,60c2.8,1.2,5.1,2.2,6.2,2.7v0.1
				c0,0.3,0.2,0.5,0.5,0.5h1.1l0,0h1.3c0.3,0,0.5-0.2,0.5-0.5l0,0c1.2-0.5,3.4-1.5,6.2-2.7c2.6-1.1,64-27.7,64-60V25.4
				C187,20.2,182.7,16,177.5,16z M185.9,120.7c0,31.7-60.8,58-63.4,59.1c-3,1.3-5.4,2.3-6.5,2.8c-0.2,0.1-0.3,0.2-0.3,0.4h-1.4
				c0-0.2-0.1-0.3-0.3-0.4c-1-0.5-3.4-1.5-6.5-2.8c-2.6-1.1-63.4-27.4-63.4-59.1V25.4c0-4.6,3.8-8.4,8.4-8.4h125.1
				c4.6,0,8.4,3.8,8.4,8.4L185.9,120.7L185.9,120.7z"/>
		</g>
	</g>
	<path class="st1" d="M82.6,98.3h64.1c3.8,0,6.8-3,6.8-6.8V44.7c0-3.8-3.1-6.8-6.8-6.8H82.6c-3.8,0-6.8,3.1-6.8,6.8v46.8
		C75.8,95.3,78.9,98.3,82.6,98.3z M80.8,44.7c0-1,0.8-1.8,1.8-1.8h64.1c1,0,1.8,0.8,1.8,1.8v46.8c0,1-0.8,1.8-1.8,1.8H82.6
		c-1,0-1.8-0.8-1.8-1.8C80.8,91.5,80.8,44.7,80.8,44.7z M149.9,100.6H80.2c-2.3,0-4.3,1.9-4.3,4.3c0,2.3,1.9,4.3,4.3,4.3h69.7
		c2.4,0,4.3-1.9,4.3-4.3S152.3,100.6,149.9,100.6z M82.5,106.8c-1,0-1.9-0.8-1.9-1.9c0-1,0.8-1.9,1.9-1.9c1,0,1.9,0.8,1.9,1.9
		C84.4,105.9,83.6,106.8,82.5,106.8z M88.6,106.8c-1,0-1.9-0.8-1.9-1.9c0-1,0.8-1.9,1.9-1.9c1,0,1.9,0.8,1.9,1.9
		C90.4,105.9,89.6,106.8,88.6,106.8z"/>
	<g>
		<g>
			<path class="st1" d="M166.6,125.6c0,0.4-0.2,0.6-0.5,0.6h-31.7c-0.3,0-0.5-0.3-0.5-0.6l0,0c0-0.4,0.2-0.6,0.5-0.6h31.7
				C166.4,125,166.6,125.3,166.6,125.6L166.6,125.6z"/>
		</g>
		<g>
			<path class="st1" d="M63.4,125.6c0,0.4,0.2,0.6,0.5,0.6h31.7c0.3,0,0.5-0.3,0.5-0.6l0,0c0-0.4-0.2-0.6-0.5-0.6H63.9
				C63.6,125,63.4,125.3,63.4,125.6L63.4,125.6z"/>
		</g>
	</g>
	<g id="text_37_">
		<g>
			<path class="st1" d="M109.4,140.3c-0.4-0.7-1.4-0.6-2.2,0.8l-5,8.7h-1.5l2.7-4.7h-2.3l-1,1.7c-4.5,7.8-12.3,2.9-9.5-1.8
				c1-1.7,2.5-1.8,2.5-1.8l0.3,1.1c0,0-1.1,0.3-1.7,1.3c-2,3.4,3.7,6.6,7.2,0.5l3.1-5.3c-1.6,0.8-4.2,0.9-4.9,2.1
				c-0.7,1.3,0.6,1.8,0.6,1.8l-0.6,1c-1-0.4-2.2-1.6-1.2-3.3c1.2-2.2,4.6-1.4,7.2-3.5l0.8,1.3l-2.4,4.2h2.3l2.2-3.7
				c1.9-3.2,5-1.7,5,0.2c0,0.5-0.4,0.9-0.9,0.9s-0.9-0.4-0.9-0.9C109.3,140.7,109.3,140.5,109.4,140.3z M109.8,146.6
				c0.2,0.1,0.5,0.3,0.6,0.5c-1.3,1.5-2.7,2.8-3.9,2.8c-1.2,0-1.7-1-1-2.2l3-5.3h1.5l-3.2,5.7c-0.3,0.6-0.2,0.8,0.2,0.8
				C107.7,148.9,108.7,147.9,109.8,146.6L109.8,146.6z"/>
			<path class="st1" d="M106.2,153l6-10.5h1.5l-0.3,0.5c1.5-1.4,3.8-0.6,2.4,1.8l-1.7,2.9c-0.2,0.3-0.4,0.7-0.6,1.1
				c0.9-0.3,1.9-1.1,2.8-2.1l0.1-0.1c0.2,0.1,0.5,0.3,0.6,0.5c-1.2,1.4-2.7,2.8-4.9,2.8H112c-1.4,0-1.7-1.2-1.7-1.2l0.9-0.4
				c0.3,0.6,0.8,0.4,1.1,0l2.3-4c0.4-0.7-0.7-1.5-2.4,0.8l-4.5,7.9H106.2z"/>
			<path class="st1" d="M115.7,148.7l0.9-0.5c0,0,0.2,0.6,0.7,0.6c1.4,0,1.1-2.8,1.7-4.4c-0.5,0.7-1.3,1.8-2.2,2.8
				c-0.2-0.1-0.4-0.3-0.6-0.5c1.4-1.6,2.7-3.6,3.4-4.4l1.1,0.6c-0.9,1.9-0.8,4.1-1.3,5.6c0.6-0.4,1.3-1,1.8-1.6l0.1-0.1
				c0.2,0.1,0.5,0.3,0.6,0.5c-1.1,1.3-2.7,2.5-4.2,2.8l0,0c-0.1,0-0.3,0-0.4,0C116,149.9,115.7,148.7,115.7,148.7z"/>
			<path class="st1" d="M122.9,141.8h1.4l1.4-2.5h1.5l-1.4,2.5h1.3l-0.4,0.7h-1.2l-3.2,5.7c-0.3,0.6-0.2,0.8,0.2,0.8
				c0.7,0,1.7-1,2.8-2.3l0.1-0.1c0.2,0.1,0.5,0.3,0.6,0.5c-1.3,1.5-2.7,2.8-3.9,2.8c-1.2,0-1.7-1-1-2.2l3-5.3h-1.4L122.9,141.8z"/>
			<path class="st1" d="M126.6,146.9l-0.1,0.3c-0.7,1.2-0.1,1.8,0.8,1.8c1.1,0,2.5-1,3.6-2.3l0.1-0.1c0.2,0.1,0.5,0.3,0.6,0.5
				c-1.3,1.5-3,2.8-4.7,2.8c-1.8,0-2.6-1.5-1.7-3.1l1.6-2.7c0.6-1.1,1.6-1.7,2.8-1.7s2,1,1.2,2.4l-0.2,0.4
				C129.4,147.1,127.6,147.3,126.6,146.9z M127,146.2c0.6,0.2,1.5,0.2,2.3-1l0.2-0.4c0.9-1.6-0.6-1.8-1.5-0.3L127,146.2z"/>
			<path class="st1" d="M134.2,145c0.2-0.3,0.1-0.6-0.1-0.9l-0.2-0.2c-1.2,1.6-1.8,2.4-2.5,3.2c-0.2-0.1-0.4-0.3-0.6-0.5
				c1-1.2,1.9-2.4,2.6-3.4l-0.1-0.2c-0.5-0.7-0.5-1.6,0.4-2.3l0.8,0.9c-0.3,0.3-0.3,0.6-0.1,0.9l0.8,1c0.5,0.6,0.7,1.1,0.2,2.1
				l-1.5,2.7c-0.3,0.6-0.2,0.8,0.2,0.8c0.7,0,1.7-1,2.8-2.3l0.1-0.1c0.2,0.1,0.5,0.3,0.6,0.5c-1.3,1.5-2.7,2.8-3.9,2.8s-1.7-1-1-2.2
				L134.2,145z"/>
			<path class="st1" d="M105.7,155.5v1.3c-0.2-0.3-0.4-0.5-0.6-0.6s-0.4-0.2-0.6-0.2c-0.4,0-0.7,0.1-0.9,0.4c-0.2,0.3-0.4,0.6-0.4,1
				s0.1,0.7,0.4,1c0.2,0.3,0.5,0.4,0.9,0.4c0.2,0,0.4-0.1,0.6-0.2c0.2-0.1,0.4-0.3,0.6-0.6v1.3c-0.4,0.2-0.8,0.3-1.2,0.3
				c-0.7,0-1.2-0.2-1.7-0.6c-0.4-0.4-0.7-1-0.7-1.6s0.2-1.2,0.7-1.6c0.4-0.4,1-0.7,1.7-0.7C105,155.2,105.4,155.3,105.7,155.5z"/>
			<path class="st1" d="M106.5,157.4c0-0.6,0.2-1.1,0.7-1.6c0.4-0.4,1-0.6,1.6-0.6s1.2,0.2,1.6,0.7c0.4,0.4,0.7,1,0.7,1.6
				s-0.2,1.2-0.7,1.6c-0.4,0.4-1,0.6-1.6,0.6s-1.2-0.2-1.6-0.7C106.7,158.6,106.5,158,106.5,157.4z M107.5,157.4
				c0,0.4,0.1,0.8,0.3,1c0.2,0.3,0.5,0.4,0.9,0.4s0.7-0.1,0.9-0.4c0.2-0.2,0.3-0.6,0.3-1s-0.1-0.7-0.3-1c-0.2-0.3-0.5-0.4-0.9-0.4
				s-0.7,0.1-0.9,0.4C107.6,156.7,107.5,157,107.5,157.4z"/>
			<path class="st1" d="M115.2,152.2h1v7.4h-1v-0.4c-0.4,0.4-0.8,0.6-1.3,0.6c-0.6,0-1.1-0.2-1.5-0.6c-0.4-0.4-0.6-1-0.6-1.6
				s0.2-1.2,0.6-1.6c0.4-0.4,0.9-0.6,1.4-0.6s0.9,0.2,1.3,0.6L115.2,152.2L115.2,152.2z M112.9,157.4c0,0.4,0.1,0.7,0.3,1
				c0.2,0.3,0.5,0.4,0.8,0.4c0.4,0,0.7-0.1,0.9-0.4c0.2-0.3,0.3-0.6,0.3-1s-0.1-0.7-0.3-1c-0.2-0.3-0.5-0.4-0.9-0.4
				c-0.3,0-0.6,0.1-0.8,0.4C113,156.7,112.9,157,112.9,157.4z"/>
			<path class="st1" d="M117.3,153.5c0-0.2,0.1-0.3,0.2-0.4c0.1-0.1,0.3-0.2,0.5-0.2s0.3,0.1,0.5,0.2c0.1,0.1,0.2,0.3,0.2,0.5
				s-0.1,0.3-0.2,0.5c-0.1,0.1-0.3,0.2-0.5,0.2s-0.3-0.1-0.5-0.2C117.4,153.8,117.3,153.7,117.3,153.5z M118.4,155.3v4.3h-1v-4.3
				H118.4z"/>
			<path class="st1" d="M119.7,155.3h1v0.4c0.3-0.3,0.7-0.5,1.2-0.5s0.9,0.2,1.2,0.5c0.2,0.3,0.4,0.7,0.4,1.3v2.6h-1v-2.4
				c0-0.4-0.1-0.7-0.2-0.9s-0.3-0.2-0.6-0.2c-0.3,0-0.6,0.1-0.7,0.3s-0.2,0.6-0.2,1.1v2.1h-1v-4.3H119.7z"/>
			<path class="st1" d="M128.7,159.4c0,0.2,0,0.4,0,0.5c0,0.2,0,0.3-0.1,0.4c-0.1,0.3-0.2,0.6-0.4,0.8c-0.4,0.4-0.9,0.7-1.6,0.7
				c-0.6,0-1-0.2-1.4-0.5s-0.6-0.8-0.7-1.3h1c0,0.2,0.1,0.4,0.2,0.5c0.2,0.3,0.5,0.4,0.9,0.4c0.7,0,1.1-0.4,1.1-1.3V159
				c-0.4,0.4-0.8,0.6-1.4,0.6s-1.1-0.2-1.4-0.6c-0.4-0.4-0.6-1-0.6-1.6s0.2-1.1,0.5-1.6c0.4-0.5,0.9-0.7,1.5-0.7
				c0.5,0,1,0.2,1.3,0.6v-0.5h1L128.7,159.4L128.7,159.4z M127.8,157.4c0-0.4-0.1-0.7-0.3-1c-0.2-0.3-0.5-0.4-0.9-0.4
				s-0.7,0.1-0.9,0.4c-0.2,0.2-0.3,0.6-0.3,1s0.1,0.7,0.3,1c0.2,0.3,0.5,0.4,0.9,0.4s0.7-0.1,0.9-0.4
				C127.7,158.1,127.8,157.8,127.8,157.4z"/>
		</g>
		<g>
			<path class="st1" d="M96,53.4h1.5v11.1H96V53.4z"/>
			<path class="st1" d="M102.3,53.4h1.4l1.5,4.4c0.4,1.2,0.8,2.6,1.1,4c-0.1-0.9-0.2-1.6-0.3-2.3c-0.1-0.7-0.1-1.3-0.1-2v-4.1h1.5
				v11.1H106l-1.7-5c-0.2-0.5-0.3-0.9-0.4-1.4s-0.3-1-0.4-1.5c0-0.1,0-0.1,0-0.2s0-0.2-0.1-0.3c0,0.1,0,0.2,0,0.3s0,0.2,0,0.2
				l0.1,1.1l0.1,1.4c0,0.1,0,0.2,0,0.3s0,0.2,0,0.4l0.1,4.8h-1.5V53.4H102.3z"/>
			<path class="st1" d="M109.1,53.4h4v1.3h-2.5v3.5h2.2v1.3h-2.2v3.8h2.5v1.3h-4V53.4z"/>
			<path class="st1" d="M114.5,53.4h4v1.3H116v3.5h2.2v1.3H116v3.8h2.5v1.3h-4V53.4z"/>
			<path class="st1" d="M119.8,53.4h1.8c0.6,0,1,0.1,1.4,0.2c0.4,0.1,0.7,0.3,0.9,0.6c0.4,0.5,0.7,1.1,0.9,1.8
				c0.2,0.7,0.3,1.7,0.3,3.1c0,1.2-0.1,2.2-0.3,3c-0.2,0.7-0.5,1.3-0.9,1.7c-0.5,0.5-1.5,0.7-2.9,0.7h-1.2
				C119.8,64.5,119.8,53.4,119.8,53.4z M121.3,63.2c0.9,0,1.5-0.3,1.8-0.8c0.3-0.6,0.5-1.6,0.5-3.2c0-1.7-0.2-2.9-0.5-3.5
				s-0.9-1-1.7-1h-0.2L121.3,63.2L121.3,63.2z"/>
			<path class="st1" d="M131.3,53.4h1.2l2.4,11.1h-1.5l-0.4-2.2h-2.2l-0.4,2.2H129L131.3,53.4z M132.7,61.2l-0.3-1.8
				c-0.2-1.2-0.4-2.5-0.5-3.8c-0.1,0.7-0.2,1.3-0.3,2s-0.2,1.4-0.4,2.2l-0.3,1.4C130.9,61.2,132.7,61.2,132.7,61.2z"/>
			<path class="st1" d="M105.5,70.7V72l-4.4,2.1l4.4,2.1v1.3l-5.8-2.8v-1.1L105.5,70.7z"/>
			<path class="st1" d="M108.3,67.9v4.8c0.5-0.5,1.1-0.8,1.8-0.8c0.8,0,1.4,0.3,1.9,0.8c0.5,0.6,0.8,1.3,0.8,2.1
				c0,0.9-0.3,1.6-0.8,2.1c-0.5,0.6-1.1,0.8-1.9,0.8c-0.6,0-1.2-0.2-1.7-0.7v0.6H107v-9.7C107,67.9,108.3,67.9,108.3,67.9z
				 M111.4,74.9c0-0.5-0.1-1-0.4-1.3s-0.7-0.5-1.1-0.5c-0.5,0-0.9,0.2-1.2,0.5c-0.3,0.3-0.4,0.8-0.4,1.3s0.1,1,0.4,1.3
				s0.7,0.5,1.1,0.5s0.8-0.2,1.1-0.5C111.3,75.8,111.4,75.4,111.4,74.9z"/>
			<path class="st1" d="M114.1,72h1.3v0.5c0.2-0.2,0.4-0.4,0.6-0.5s0.4-0.1,0.7-0.1c0.3,0,0.7,0.1,1.1,0.3l-0.6,1.2
				c-0.2-0.2-0.5-0.3-0.7-0.3c-0.7,0-1.1,0.5-1.1,1.6v2.9h-1.3V72z"/>
			<path class="st1" d="M122.7,68.8l1.1,0.5L118.7,81l-1.1-0.5L122.7,68.8z"/>
			<path class="st1" d="M124.5,77.5v-1.3l4.3-2.1l-4.3-2.1v-1.3l5.8,2.8v1.1L124.5,77.5z"/>
		</g>
	</g>
	<path class="st1" d="M120.6,119.3c0,0,0.2-1.2,0.3-1.6c0.8-0.4,2-0.7,3.2,0c0.8,0.4,1.2,1.2,1.3,2.1c0.1,1.1-0.4,2.2-1.4,3.1
		c-1.2,1.1-3.4,2-5,2.5c0.3-0.5,0.5-1.1,0.7-1.5c1.3-0.5,2.7-1.2,3.5-1.9c0.7-0.6,1-1.3,1-2c0-0.5-0.3-0.9-0.7-1.2
		C122.1,118.1,120.6,119.3,120.6,119.3z M110.2,126.8h6.8c1.7-1.2,2.2-3.2,2.4-4c0.3-1.1,0.9-4.7,1-5.7c-0.6,0-13.1,0-13.7,0
		c0.2,1,0.8,4.7,1,5.7C108,123.6,108.5,125.5,110.2,126.8z M120,129.1c2.9-0.5,4.8-1.3,5.8-1.9c-1.7,0-22.3,0-24,0
		c1,0.5,2.9,1.3,5.8,1.9H120z M119.9,129.6c-0.8,0-11.3,0-12.2,0c0.3,0.4,0.6,1,0.7,1.1c0.3,0,10.5,0,10.8,0
		C119.3,130.6,119.6,130,119.9,129.6z"/>
</g>
</svg>
