<?xml version="1.0" encoding="utf-8"?>
<!-- Generator: Adobe Illustrator 19.0.0, SVG Export Plug-In . SVG Version: 6.00 Build 0)  -->
<svg version="1.1" id="Layer_1" xmlns="http://www.w3.org/2000/svg" xmlns:xlink="http://www.w3.org/1999/xlink" x="0px" y="0px"
	 viewBox="-380 262.3 80 72" style="enable-background:new -380 262.3 80 72;" xml:space="preserve">
<style type="text/css">
	.st0{fill:#FFFFFF;}
</style>
<g>
	<g>
		<g>
			<path class="st0" d="M-378.9,322h2v9.1h-2C-378.9,331.1-378.9,322-378.9,322z"/>
			<path class="st0" d="M-373.5,322h2.7l3.9,6.3l0,0V322h2v9.1h-2.6l-4-6.5l0,0v6.5h-2V322z"/>
			<path class="st0" d="M-357.2,324.2c-0.2-0.2-0.4-0.4-0.7-0.5c-0.3-0.1-0.5-0.1-0.8-0.1c-0.1,0-0.3,0-0.5,0.1
				c-0.2,0-0.3,0.1-0.4,0.2s-0.3,0.2-0.3,0.3c-0.1,0.1-0.1,0.3-0.1,0.4c0,0.3,0.1,0.5,0.3,0.6c0.2,0.1,0.5,0.3,0.8,0.4
				c0.3,0.1,0.7,0.2,1,0.3c0.4,0.1,0.7,0.3,1,0.4c0.3,0.2,0.6,0.4,0.8,0.8c0.2,0.3,0.3,0.7,0.3,1.3c0,0.5-0.1,0.9-0.3,1.3
				c-0.2,0.4-0.4,0.7-0.8,0.9c-0.3,0.3-0.7,0.4-1.1,0.6c-0.4,0.1-0.9,0.2-1.4,0.2c-0.6,0-1.1-0.1-1.6-0.3c-0.5-0.2-1-0.5-1.4-0.9
				l1.4-1.6c0.2,0.3,0.5,0.5,0.8,0.6c0.3,0.1,0.6,0.2,1,0.2c0.2,0,0.3,0,0.5-0.1c0.2,0,0.3-0.1,0.5-0.2c0.1-0.1,0.2-0.2,0.3-0.3
				s0.1-0.3,0.1-0.4c0-0.3-0.1-0.5-0.3-0.7c-0.2-0.2-0.5-0.3-0.8-0.4c-0.3-0.1-0.7-0.2-1-0.3c-0.4-0.1-0.7-0.3-1-0.5
				c-0.3-0.2-0.6-0.4-0.8-0.8c-0.2-0.3-0.3-0.7-0.3-1.2s0.1-0.9,0.3-1.3c0.2-0.4,0.5-0.7,0.8-0.9c0.3-0.2,0.7-0.4,1.1-0.6
				c0.4-0.1,0.9-0.2,1.3-0.2c0.5,0,1,0.1,1.5,0.2c0.5,0.2,0.9,0.4,1.3,0.7L-357.2,324.2z"/>
			<path class="st0" d="M-351.5,323.8h-2.6V322h7.2v1.8h-2.6v7.4h-2C-351.5,331.2-351.5,323.8-351.5,323.8z"/>
			<path class="st0" d="M-343,322h1.7l4,9.1h-2.3l-0.8-1.9h-3.6l-0.8,1.9h-2.2L-343,322z M-342.2,324.7l-1.1,2.8h2.2L-342.2,324.7z"
				/>
			<path class="st0" d="M-335.1,322h3.4c0.5,0,0.9,0,1.3,0.1c0.4,0.1,0.8,0.2,1.1,0.4c0.3,0.2,0.6,0.5,0.7,0.9
				c0.2,0.4,0.3,0.8,0.3,1.3s-0.1,1-0.3,1.3c-0.2,0.4-0.4,0.7-0.7,0.9c-0.3,0.2-0.7,0.4-1.1,0.5s-0.9,0.1-1.3,0.1h-1.5v3.6h-2V322
				H-335.1z M-333.1,325.9h1.3c0.2,0,0.4,0,0.5,0c0.2,0,0.3-0.1,0.5-0.2c0.1-0.1,0.2-0.2,0.3-0.3s0.1-0.3,0.1-0.5
				c0-0.2-0.1-0.4-0.2-0.6c-0.1-0.1-0.2-0.3-0.4-0.3c-0.2-0.1-0.4-0.1-0.6-0.2c-0.2,0-0.4,0-0.6,0h-1v2.1H-333.1z"/>
			<path class="st0" d="M-326.2,322h2v7.3h3.7v1.9h-5.7V322z"/>
			<path class="st0" d="M-315,322h1.7l4,9.1h-2.3l-0.8-1.9h-3.6l-0.8,1.9h-2.2L-315,322z M-314.2,324.7l-1.1,2.8h2.2L-314.2,324.7z"
				/>
			<path class="st0" d="M-301.4,324.4c-0.2-0.2-0.4-0.4-0.7-0.6c-0.3-0.1-0.6-0.2-1-0.2s-0.7,0.1-1,0.2c-0.3,0.1-0.6,0.4-0.8,0.6
				c-0.2,0.3-0.4,0.6-0.6,0.9c-0.1,0.4-0.2,0.8-0.2,1.2c0,0.4,0.1,0.8,0.2,1.2s0.3,0.7,0.5,0.9c0.2,0.3,0.5,0.5,0.8,0.6
				c0.3,0.1,0.6,0.2,1,0.2c0.4,0,0.8-0.1,1.1-0.3c0.3-0.2,0.6-0.4,0.8-0.7l1.7,1.3c-0.4,0.5-0.9,0.9-1.5,1.2
				c-0.6,0.3-1.2,0.4-1.8,0.4c-0.7,0-1.4-0.1-2-0.3c-0.6-0.2-1.1-0.5-1.6-1c-0.4-0.4-0.8-0.9-1-1.5c-0.2-0.6-0.4-1.3-0.4-2
				c0-0.7,0.1-1.4,0.4-2c0.2-0.6,0.6-1.1,1-1.5c0.4-0.4,1-0.7,1.6-1c0.6-0.2,1.3-0.3,2-0.3c0.3,0,0.5,0,0.8,0.1
				c0.3,0,0.6,0.1,0.8,0.2c0.3,0.1,0.5,0.2,0.8,0.4c0.2,0.2,0.5,0.4,0.7,0.6L-301.4,324.4z"/>
		</g>
	</g>
	<g>
		<g>
			<polygon class="st0" points="-329.6,267.5 -329.6,292.2 -329.6,296.5 -329.6,302.4 -338.2,297.2 -338.2,291.4 -338.2,287 
				-338.2,262.3 			"/>
		</g>
		<g>
			<polygon class="st0" points="-339.3,299.1 -339.3,299.1 -339.3,299.1 -349,304.8 -339.3,310.5 -329.6,304.8 			"/>
		</g>
		<g>
			<polygon class="st0" points="-340.4,272.3 -349,277.5 -349,267.5 -340.4,262.3 			"/>
			<polygon class="st0" points="-340.4,297.2 -349,302.4 -349,292.4 -340.4,287.2 			"/>
			<polygon class="st0" points="-340.4,284.7 -349,289.9 -349,280 -340.4,274.7 			"/>
		</g>
	</g>
</g>
</svg>
