<?xml version="1.0" encoding="utf-8"?>
<!-- Generator: Adobe Illustrator 19.0.0, SVG Export Plug-In . SVG Version: 6.00 Build 0)  -->
<svg version="1.1" id="Layer_1" xmlns="http://www.w3.org/2000/svg" xmlns:xlink="http://www.w3.org/1999/xlink" x="0px" y="0px"
	 viewBox="-354 271.3 133 53" style="enable-background:new -354 271.3 133 53;" xml:space="preserve">
<style type="text/css">
	.st0{fill:#FFFFFF;}
</style>
<g>
	<g>
		<g>
			<path class="st0" d="M-313.6,292.9h2.2v9.9h-2.2V292.9z"/>
			<path class="st0" d="M-307.8,292.9h3l4.2,6.8l0,0v-6.8h2.2v9.9h-2.8l-4.3-7l0,0v7h-2.2v-9.9H-307.8z"/>
			<path class="st0" d="M-290.2,295.3c-0.2-0.2-0.4-0.4-0.7-0.5c-0.3-0.1-0.6-0.2-0.9-0.2c-0.2,0-0.3,0-0.5,0.1
				c-0.2,0-0.3,0.1-0.5,0.2c-0.1,0.1-0.3,0.2-0.4,0.3c-0.1,0.1-0.1,0.3-0.1,0.5c0,0.3,0.1,0.5,0.3,0.7c0.2,0.2,0.5,0.3,0.8,0.4
				s0.7,0.2,1.1,0.3c0.4,0.1,0.8,0.3,1.1,0.5c0.3,0.2,0.6,0.5,0.8,0.8c0.2,0.3,0.3,0.8,0.3,1.4c0,0.5-0.1,1-0.3,1.4
				c-0.2,0.4-0.5,0.7-0.8,1c-0.4,0.3-0.8,0.5-1.2,0.6c-0.5,0.1-0.9,0.2-1.5,0.2s-1.2-0.1-1.8-0.3c-0.6-0.2-1.1-0.5-1.5-0.9l1.5-1.7
				c0.2,0.3,0.5,0.5,0.8,0.7s0.7,0.2,1.1,0.2c0.2,0,0.4,0,0.5-0.1c0.2,0,0.3-0.1,0.5-0.2c0.1-0.1,0.3-0.2,0.4-0.3
				c0.1-0.1,0.1-0.3,0.1-0.5c0-0.3-0.1-0.5-0.3-0.7c-0.2-0.2-0.5-0.3-0.9-0.4c-0.3-0.1-0.7-0.2-1.1-0.4c-0.4-0.1-0.8-0.3-1.1-0.5
				c-0.3-0.2-0.6-0.5-0.9-0.8c-0.2-0.3-0.3-0.8-0.3-1.3s0.1-1,0.3-1.4c0.2-0.4,0.5-0.7,0.8-1s0.7-0.5,1.2-0.6s0.9-0.2,1.4-0.2
				c0.6,0,1.1,0.1,1.6,0.2c0.5,0.2,1,0.4,1.4,0.8L-290.2,295.3z"/>
			<path class="st0" d="M-284,294.8h-2.8v-1.9h7.8v1.9h-2.8v7.9h-2.2V294.8z"/>
			<path class="st0" d="M-274.9,292.9h1.8l4.3,9.9h-2.4l-0.8-2.1h-3.8l-0.8,2.1h-2.4L-274.9,292.9z M-274,295.7l-1.2,3.1h2.4
				L-274,295.7z"/>
			<path class="st0" d="M-266.4,292.9h3.7c0.5,0,1,0,1.4,0.1c0.5,0.1,0.9,0.3,1.2,0.5c0.3,0.2,0.6,0.5,0.8,0.9
				c0.2,0.4,0.3,0.9,0.3,1.5s-0.1,1.1-0.3,1.4c-0.2,0.4-0.4,0.7-0.8,0.9c-0.3,0.2-0.7,0.4-1.2,0.5c-0.4,0.1-0.9,0.1-1.4,0.1h-1.6
				v3.8h-2.2v-9.7H-266.4z M-264.2,297h1.4c0.2,0,0.4,0,0.6-0.1c0.2,0,0.3-0.1,0.5-0.2c0.1-0.1,0.3-0.2,0.3-0.4
				c0.1-0.1,0.1-0.3,0.1-0.6c0-0.2-0.1-0.5-0.2-0.6c-0.1-0.2-0.3-0.3-0.4-0.4c-0.2-0.1-0.4-0.1-0.6-0.2c-0.2,0-0.4,0-0.6,0h-1.1
				L-264.2,297L-264.2,297z"/>
			<path class="st0" d="M-256.7,292.9h2.2v7.9h4v2h-6.2V292.9z"/>
			<path class="st0" d="M-244.7,292.9h1.8l4.3,9.9h-2.5l-0.8-2.1h-3.8l-0.8,2.1h-2.4L-244.7,292.9z M-243.8,295.7l-1.2,3.1h2.4
				L-243.8,295.7z"/>
			<path class="st0" d="M-230.1,295.4c-0.2-0.3-0.5-0.5-0.8-0.6s-0.7-0.2-1.1-0.2c-0.4,0-0.8,0.1-1.1,0.2c-0.4,0.2-0.7,0.4-0.9,0.7
				c-0.3,0.3-0.5,0.6-0.6,1s-0.2,0.8-0.2,1.3s0.1,0.9,0.2,1.3c0.1,0.4,0.3,0.7,0.6,1s0.5,0.5,0.9,0.7c0.3,0.2,0.7,0.2,1.1,0.2
				c0.4,0,0.8-0.1,1.2-0.3c0.3-0.2,0.6-0.4,0.9-0.8l1.8,1.4c-0.4,0.6-0.9,1-1.6,1.3c-0.6,0.3-1.3,0.4-2,0.4c-0.8,0-1.5-0.1-2.1-0.4
				c-0.6-0.2-1.2-0.6-1.7-1c-0.5-0.5-0.8-1-1.1-1.6s-0.4-1.4-0.4-2.1c0-0.8,0.1-1.5,0.4-2.1c0.3-0.6,0.6-1.2,1.1-1.6s1-0.8,1.7-1
				s1.4-0.4,2.1-0.4c0.3,0,0.6,0,0.9,0.1c0.3,0,0.6,0.1,0.9,0.2c0.3,0.1,0.6,0.3,0.8,0.4c0.3,0.2,0.5,0.4,0.7,0.7L-230.1,295.4z"/>
		</g>
	</g>
	<g>
		<g>
			<polygon class="st0" points="-326,277.4 -326,304.1 -326,308.6 -326,315 -335.2,309.4 -335.2,303.2 -335.2,298.4 -335.2,271.8 
							"/>
		</g>
		<g>
			<polygon class="st0" points="-336.4,311.5 -336.4,311.5 -336.4,311.5 -346.9,317.6 -336.4,323.8 -326,317.6 			"/>
		</g>
		<g>
			<polygon class="st0" points="-337.6,282.5 -346.9,288.1 -346.9,277.4 -337.6,271.8 			"/>
			<polygon class="st0" points="-337.6,309.4 -346.9,315 -346.9,304.2 -337.6,298.6 			"/>
			<polygon class="st0" points="-337.6,296 -346.9,301.6 -346.9,290.8 -337.6,285.2 			"/>
		</g>
	</g>
</g>
</svg>
