<?xml version="1.0" encoding="utf-8"?>
<!-- Generator: Adobe Illustrator 22.1.0, SVG Export Plug-In . SVG Version: 6.00 Build 0)  -->
<svg version="1.1" id="Capa_1" xmlns="http://www.w3.org/2000/svg" xmlns:xlink="http://www.w3.org/1999/xlink" x="0px" y="0px"
	 viewBox="0 0 102 102" style="enable-background:new 0 0 102 102;" xml:space="preserve">
<style type="text/css">
	.st0{fill:#FFFFFF;}
</style>
<g>
	<path class="st0" d="M37.3,45.4c12.7-1.7,24.5-6.5,34.5-13.6l0,0c1.4-1,3-1.7,4.7-2.1l-3.8-13c-0.2-0.7-0.4-1.4-0.6-2.1l0,0h0
		C69.2,6.7,61.6,1,52.7,1S36.2,6.7,33.4,14.6h0l0,0c-0.2,0.7-0.5,1.4-0.6,2.1L22.1,52.9C26.3,49.1,31.5,46.5,37.3,45.4z M52.7,11.5
		c7,0,12.6,5.7,12.6,12.6c0,7-5.7,12.6-12.6,12.6c-7,0-12.6-5.7-12.6-12.6C40.1,17.2,45.7,11.5,52.7,11.5z"/>
	<path class="st0" d="M92.7,84.8L92.7,84.8L77.8,34.2c-13.2,7.7-22,21.9-22,38.3c0,1.4,0.1,2.8,0.2,4.2c-1-0.2-2.1-0.2-3.2-0.2
		c-8.1,0-15.2,4.4-19,11l0,0c-0.8,1.4-2.4,2.4-4.2,2.4c-2.7,0-4.8-2.2-4.8-4.8c0-0.4,0.1-0.8,0.1-1.2l0,0l1.9-8.8l0,0
		c0.1-0.4,0.2-0.8,0.2-1.2c0-2.7-2.2-4.8-4.8-4.8c-1.1,0-2.1,0.4-2.9,1c-1.8,1.5-3.1,3.5-3.9,5.8L13,83.9c-0.5,1.4-0.8,2.9-0.8,4.5
		c0,7,5.7,12.6,12.6,12.6c0.8,0,3.9,0,4.7,0c5.1,0,9.4-3,11.4-7.3c1.9-4.7,6.4-8,11.7-8c5.3,0,9.9,3.3,11.7,8
		c2,4.3,6.4,7.3,11.4,7.3c0.8,0,3.9,0,4.7,0c7,0,12.6-5.7,12.6-12.6C93.2,87.1,93.1,85.9,92.7,84.8z"/>
</g>
</svg>
